<?xml version="1.0" encoding="UTF-8"?>
<svg width="68px" height="73px" viewBox="0 0 68 73" version="1.1" xmlns="http://www.w3.org/2000/svg" xmlns:xlink="http://www.w3.org/1999/xlink">
    <!-- Generator: Sketch 61 (89581) - https://sketch.com -->
    <title>定位图标/建筑</title>
    <desc>Created with Sketch.</desc>
    <defs>
        <linearGradient x1="50%" y1="0%" x2="50%" y2="100%" id="linearGradient-1">
            <stop stop-color="#4FC4F5" offset="0%"></stop>
            <stop stop-color="#1A89D9" offset="100%"></stop>
        </linearGradient>
        <path d="M30,65.1878334 C32.6974696,60.470918 34.6539153,57.8836772 35.8693371,57.4261108 C50.1538595,52.0484577 60,43.5598747 60,29 C60,12.4314575 46.5685425,0 30,0 C13.4314575,0 0,12.4314575 0,29 C0,43.6376577 9.21930858,52.2165829 24.3514572,57.4690401 C25.9511937,58.024318 27.8340413,60.5972491 30,65.1878334 Z" id="path-2"></path>
        <filter x="-11.7%" y="-7.7%" width="123.3%" height="121.5%" filterUnits="objectBoundingBox" id="filter-3">
            <feOffset dx="0" dy="2" in="SourceAlpha" result="shadowOffsetOuter1"></feOffset>
            <feGaussianBlur stdDeviation="2" in="shadowOffsetOuter1" result="shadowBlurOuter1"></feGaussianBlur>
            <feColorMatrix values="0 0 0 0 0   0 0 0 0 0   0 0 0 0 0  0 0 0 0.482135052 0" type="matrix" in="shadowBlurOuter1"></feColorMatrix>
        </filter>
    </defs>
    <g id="Page-1" stroke="none" stroke-width="1" fill="none" fill-rule="evenodd">
        <g id="地图模块/地图展示/收起" transform="translate(-1201.000000, -362.000000)">
            <g id="定位图标/建筑" transform="translate(1205.000000, 364.000000)">
                <g id="椭圆形">
                    <use fill="black" fill-opacity="1" filter="url(#filter-3)" xlink:href="#path-2"></use>
                    <use fill="url(#linearGradient-1)" fill-rule="evenodd" xlink:href="#path-2"></use>
                </g>
                <g id="建筑" transform="translate(16.000000, 14.000000)" fill-rule="nonzero">
                    <rect id="矩形" fill="#000000" opacity="0" x="0" y="0" width="28" height="28"></rect>
                    <path d="M27.0909141,25.4221932 L27.0909141,9.37776723 C27.0909141,8.27319773 26.1954836,7.37776723 25.0909141,7.37776723 L21.454543,7.37776723 C20.3499735,7.37776723 19.454543,8.27319773 19.454543,9.37776723 L19.454543,25.4221932 L19.454543,25.4221932 L18.1818281,25.4221932 L18.1818281,2.93333333 C18.1818281,1.82876383 17.2863976,0.933333333 16.1818281,0.933333333 L3.90911328,0.933333333 C2.80454378,0.933333333 1.90911328,1.82876383 1.90911328,2.93333333 L1.90911328,25.4221932 L1.90911328,25.4221932 L0.63634375,25.4221932 C0.254542969,25.4221932 0,25.679996 0,26.0666726 L0,27.355576 C0,27.7422249 0.254570313,28 0.636371094,28 L28.3636289,28 C28.745457,28 29,27.7422249 29,27.355576 L29,26.0666726 C29,25.679996 28.7454297,25.4222209 28.3636289,25.4222209 L27.0909141,25.4221932 Z M7.63637109,20.2666627 L5.09091406,20.2666627 C4.70908594,20.2666627 4.45454297,20.0088599 4.45454297,19.622211 L4.45454297,18.3333076 C4.45454297,17.9466588 4.70911328,17.6888836 5.09091406,17.6888836 L7.63634375,17.6888836 C8.01817188,17.6888836 8.27271484,17.9466588 8.27271484,18.3333076 L8.27271484,19.622211 C8.27271484,20.0088599 8.01817188,20.2666627 7.63637109,20.2666627 Z M8.27271484,14.4666528 C8.27271484,14.8533294 8.01817188,15.1111045 7.63637109,15.1111045 L5.09091406,15.1111045 C4.70908594,15.1111045 4.45454297,14.8533017 4.45454297,14.4666528 L4.45454297,13.1777771 C4.45454297,12.7911006 4.70911328,12.5333254 5.09091406,12.5333254 L7.63634375,12.5333254 C8.01817188,12.5333254 8.27271484,12.7911006 8.27271484,13.1777771 L8.27271484,14.4666528 L8.27271484,14.4666528 Z M8.27271484,9.31109463 C8.27271484,9.69777118 8.01817188,9.95554633 7.63637109,9.95554633 L5.09091406,9.95554633 C4.70908594,9.95554633 4.45454297,9.69774349 4.45454297,9.31109463 L4.45454297,8.02221893 C4.45454297,7.63554237 4.70911328,7.37776723 5.09091406,7.37776723 L7.63634375,7.37776723 C8.01817188,7.37776723 8.27271484,7.63557006 8.27271484,8.02221893 L8.27271484,9.31109463 L8.27271484,9.31109463 Z M15.6363711,19.622211 C15.6363711,20.0088599 15.3818008,20.2666627 15,20.2666627 L12.4545703,20.2666627 C12.0727148,20.2666627 11.8181719,20.0088599 11.8181719,19.622211 L11.8181719,18.3333076 C11.8181719,17.9466588 12.0727422,17.6888836 12.454543,17.6888836 L15,17.6888836 C15.3818281,17.6888836 15.6363711,17.9466588 15.6363711,18.3333076 L15.6363711,19.622211 Z M15.6363711,14.4666528 C15.6363711,14.8533294 15.3818008,15.1111045 15,15.1111045 L12.4545703,15.1111045 C12.0727148,15.1111045 11.8181719,14.8533017 11.8181719,14.4666528 L11.8181719,13.1777771 C11.8181719,12.7911006 12.0727422,12.5333254 12.454543,12.5333254 L15,12.5333254 C15.3818281,12.5333254 15.6363711,12.7911006 15.6363711,13.1777771 L15.6363711,14.4666528 Z M15.6363711,9.31109463 C15.6363711,9.69777118 15.3818008,9.95554633 15,9.95554633 L12.4545703,9.95554633 C12.0727148,9.95554633 11.8181719,9.69774349 11.8181719,9.31109463 L11.8181719,8.02221893 C11.8181719,7.63554237 12.0727422,7.37776723 12.454543,7.37776723 L15,7.37776723 C15.3818281,7.37776723 15.6363711,7.63557006 15.6363711,8.02221893 L15.6363711,9.31109463 Z M24.545457,20.2666627 L22,20.2666627 C21.6181719,20.2666627 21.3636289,20.0088599 21.3636289,19.622211 L21.3636289,18.3333076 C21.3636289,17.9466588 21.6181992,17.6888836 22,17.6888836 L24.5454297,17.6888836 C24.9272852,17.6888836 25.1818281,17.9466588 25.1818281,18.3333076 L25.1818281,19.622211 C25.1818281,20.0088599 24.9272852,20.2666627 24.545457,20.2666627 Z M24.545457,15.1111045 L22,15.1111045 C21.6181719,15.1111045 21.3636289,14.8533017 21.3636289,14.4666528 L21.3636289,13.1777771 C21.3636289,12.7911006 21.6181992,12.5333254 22,12.5333254 L24.5454297,12.5333254 C24.9272852,12.5333254 25.1818281,12.7911006 25.1818281,13.1777771 L25.1818281,14.4666528 C25.1818281,14.8533294 24.9272852,15.1111045 24.545457,15.1111045 Z" id="形状" fill="#FFFFFF"></path>
                </g>
            </g>
        </g>
    </g>
</svg>