<?xml version="1.0" encoding="UTF-8"?>
<svg width="68px" height="73px" viewBox="0 0 68 73" version="1.1" xmlns="http://www.w3.org/2000/svg" xmlns:xlink="http://www.w3.org/1999/xlink">
    <!-- Generator: Sketch 61 (89581) - https://sketch.com -->
    <title>定位图标/车辆</title>
    <desc>Created with Sketch.</desc>
    <defs>
        <linearGradient x1="50%" y1="0%" x2="50%" y2="100%" id="linearGradient-1">
            <stop stop-color="#4FC4F5" offset="0%"></stop>
            <stop stop-color="#1A89D9" offset="100%"></stop>
        </linearGradient>
        <path d="M30,65.1878334 C32.6974696,60.470918 34.6539153,57.8836772 35.8693371,57.4261108 C50.1538595,52.0484577 60,43.5598747 60,29 C60,12.4314575 46.5685425,0 30,0 C13.4314575,0 0,12.4314575 0,29 C0,43.6376577 9.21930858,52.2165829 24.3514572,57.4690401 C25.9511937,58.024318 27.8340413,60.5972491 30,65.1878334 Z" id="path-2"></path>
        <filter x="-11.7%" y="-7.7%" width="123.3%" height="121.5%" filterUnits="objectBoundingBox" id="filter-3">
            <feOffset dx="0" dy="2" in="SourceAlpha" result="shadowOffsetOuter1"></feOffset>
            <feGaussianBlur stdDeviation="2" in="shadowOffsetOuter1" result="shadowBlurOuter1"></feGaussianBlur>
            <feColorMatrix values="0 0 0 0 0   0 0 0 0 0   0 0 0 0 0  0 0 0 0.482135052 0" type="matrix" in="shadowBlurOuter1"></feColorMatrix>
        </filter>
    </defs>
    <g id="Page-1" stroke="none" stroke-width="1" fill="none" fill-rule="evenodd">
        <g id="地图模块/地图展示/收起" transform="translate(-1079.000000, -362.000000)">
            <g id="定位图标/车辆" transform="translate(1083.000000, 364.000000)">
                <g id="椭圆形">
                    <use fill="black" fill-opacity="1" filter="url(#filter-3)" xlink:href="#path-2"></use>
                    <use fill="url(#linearGradient-1)" fill-rule="evenodd" xlink:href="#path-2"></use>
                </g>
                <g id="cheliang" transform="translate(14.000000, 17.000000)" fill="#FFFFFF" fill-rule="nonzero">
                    <path d="M32,2 L32,18.176 C32,19.2805695 31.1045695,20.176 30,20.176 L27.4526326,20.176 L27.4526326,20.176 C27.088443,18.0189095 25.1998536,16.4535827 23.0126597,16.496 C20.5406747,16.5312 18.865485,18.2224 18.6046865,20.176 L16.0382143,20.176 C14.9336448,20.176 14.0382143,19.2805695 14.0382143,18.176 L14.0382143,2 C14.0382143,0.8954305 14.9336448,1.10781119e-13 16.0382143,1.10578213e-13 L30,1.10578213e-13 C31.1045695,1.10375307e-13 32,0.8954305 32,2 Z M20.0206779,21.008 C20.0206779,22.660436 21.3602338,24 23.0126597,24 C24.6650856,24 26.0046414,22.660436 26.0046414,21.008 C26.0046414,19.355564 24.6650856,18.016 23.0126597,18.016 C21.3602338,18.016 20.0206779,19.355564 20.0206779,21.008 Z M3.71197736,21.008 C3.71197736,22.660436 5.05153322,24 6.70395912,24 C8.35638501,24 9.69594087,22.660436 9.69594087,21.008 C9.69594087,19.355564 8.35638501,18.016 6.70395912,18.016 C5.05153322,18.016 3.71197736,19.355564 3.71197736,21.008 Z M0,11.8653242 L0,17.9737921 C1.3527075e-16,19.0783616 0.8954305,19.9737921 2,19.9737921 C2.00551306,19.9737921 2.0110261,19.9737693 2.01653898,19.9737237 L2.51518466,19.9696 L2.51518466,19.9696 C3.61437796,16.2544 6.87995804,16.5216 6.87995804,16.5216 C10.2399376,16.5968 10.9951329,19.9648 10.9951329,19.9648 C11.5368465,19.9648 11.9759921,19.5256544 11.9759921,18.9839408 L11.9759921,6.016 C11.9759921,4.9114305 11.0805616,4.016 9.97599213,4.016 L5.22578567,4.016 C4.49721686,4.016 3.82628522,4.4121886 3.47444952,5.05017304 L0.248663856,10.8994973 C0.0855476927,11.1952762 2.62316974e-15,11.5275491 0,11.8653242 Z M2.40798532,12.608 L5.41436698,6.8 L9.08154462,6.8 L9.08154462,12.608 L2.40798532,12.608 Z" id="形状"></path>
                </g>
            </g>
        </g>
    </g>
</svg>