<?xml version="1.0" encoding="UTF-8"?>
<svg width="68px" height="73px" viewBox="0 0 68 73" version="1.1" xmlns="http://www.w3.org/2000/svg" xmlns:xlink="http://www.w3.org/1999/xlink">
    <!-- Generator: Sketch 61 (89581) - https://sketch.com -->
    <title>定位图标/人员</title>
    <desc>Created with Sketch.</desc>
    <defs>
        <linearGradient x1="50%" y1="0%" x2="50%" y2="100%" id="linearGradient-1">
            <stop stop-color="#4FC4F5" offset="0%"></stop>
            <stop stop-color="#1A89D9" offset="100%"></stop>
        </linearGradient>
        <path d="M30,65.1878334 C32.6974696,60.470918 34.6539153,57.8836772 35.8693371,57.4261108 C50.1538595,52.0484577 60,43.5598747 60,29 C60,12.4314575 46.5685425,7.81597009e-14 30,7.81597009e-14 C13.4314575,7.81597009e-14 0,12.4314575 0,29 C0,43.6376577 9.21930858,52.2165829 24.3514572,57.4690401 C25.9511937,58.024318 27.8340413,60.5972491 30,65.1878334 Z" id="path-2"></path>
        <filter x="-11.7%" y="-7.7%" width="123.3%" height="121.5%" filterUnits="objectBoundingBox" id="filter-3">
            <feOffset dx="0" dy="2" in="SourceAlpha" result="shadowOffsetOuter1"></feOffset>
            <feGaussianBlur stdDeviation="2" in="shadowOffsetOuter1" result="shadowBlurOuter1"></feGaussianBlur>
            <feColorMatrix values="0 0 0 0 0   0 0 0 0 0   0 0 0 0 0  0 0 0 0.482135052 0" type="matrix" in="shadowBlurOuter1"></feColorMatrix>
        </filter>
    </defs>
    <g id="Page-1" stroke="none" stroke-width="1" fill="none" fill-rule="evenodd">
        <g id="地图模块/地图展示/收起" transform="translate(-835.000000, -362.000000)">
            <g id="定位图标/人员" transform="translate(839.000000, 364.000000)">
                <g id="椭圆形">
                    <use fill="black" fill-opacity="1" filter="url(#filter-3)" xlink:href="#path-2"></use>
                    <use fill="url(#linearGradient-1)" fill-rule="evenodd" xlink:href="#path-2"></use>
                </g>
                <g id="人员" transform="translate(12.000000, 10.000000)" fill-rule="nonzero">
                    <rect id="矩形" fill="#000000" opacity="0" x="0" y="0" width="36" height="36"></rect>
                    <path d="M5.625,11.8125 C5.625,8.39514988 8.39474377,5.625 11.8116849,5.625 C15.2302562,5.625 18,8.39514991 18,11.8125 C18,15.2298501 15.228626,18 11.8116849,18 C8.3947438,18 5.625,15.2298501 5.625,11.8125 Z M13.9107911,28.9031341 L13.9107911,28.483301 C13.9107911,25.3860116 15.541194,22.6644482 18,21.0602614 C16.8892568,20.5278447 15.6713105,20.2508556 14.4372066,20.25 L9.21595687,20.25 C4.74720077,20.25 1.125,23.7622217 1.125,28.0961399 L1.125,28.6025532 C1.125,30.375 4.74720077,30.375 9.21595687,30.375 L14.2078281,30.375 C14.0046981,29.9107196 13.9034538,29.4090379 13.9107911,28.9031341 Z M25.3125,10.125 C22.5176786,10.125 20.25,12.3913994 20.25,15.1875 C20.25,17.9836006 22.5176786,20.25 25.3125,20.25 C28.1089286,20.25 30.375,17.9836006 30.375,15.1875 C30.375,12.3913994 28.1105357,10.125 25.3125,10.125 Z M25.3125,10.125 C22.5176786,10.125 20.25,12.3913994 20.25,15.1875 C20.25,17.9836006 22.5176786,20.25 25.3125,20.25 C28.1089286,20.25 30.375,17.9836006 30.375,15.1875 C30.375,12.3913994 28.1105357,10.125 25.3125,10.125 Z M23.6810201,21.375 C19.9218227,21.375 16.875,24.498056 16.875,28.3506998 L16.875,28.8003499 C16.875,30.375 19.9218227,30.375 23.6810201,30.375 L28.0723244,30.375 C31.8298495,30.375 34.875,30.3172628 34.875,28.8003499 L34.875,28.3506998 C34.875,24.498056 31.8298495,21.375 28.0723244,21.375 L23.6810201,21.375 Z" id="形状" fill="#FFFFFF"></path>
                </g>
            </g>
        </g>
    </g>
</svg>