<?xml version="1.0" standalone="no"?>
<!DOCTYPE svg PUBLIC "-//W3C//DTD SVG 1.1//EN" "http://www.w3.org/Graphics/SVG/1.1/DTD/svg11.dtd" >
<!--
2013-9-30: Created.
-->
<svg>
<metadata>
Created by iconfont
</metadata>
<defs>

<font id="font_family" horiz-adv-x="1024" >
  <font-face
    font-family="font_family"
    font-weight="500"
    font-stretch="normal"
    units-per-em="1024"
    ascent="896"
    descent="-128"
  />
    <missing-glyph />
    
    <glyph glyph-name="shouyetubiao" unicode="&#58882;" d="M624.676625-116.527667v185.011572c0 8.99474-4.201136 13.46518-12.603408 13.46518h-144.885336c-8.348412 0-12.495687-4.47044-12.495687-13.46518V-116.581527c-2.154429-9.317904-9.533347-10.772144-13.788344-10.772144-80.252472 0-176.770882 0.269304-257.023353 0.269303-37.540922 0-65.386914 35.871239-65.386914 80.144751 0 118.170419 0.215443 231.924258 0.700189 350.094677 0 6.247843 0 24.129602 15.296445 34.255418 72.658111 68.187671 393.775721 366.414475 398.569324 370.723332 7.001894 7.271197 13.572901 3.608668 17.450873 0 52.998948-49.013255 297.311172-277.598149 386.019777-359.574163 10.233537-9.425626 14.542394-19.012834 14.542395-34.201557-0.646329-112.24574 0-249.159689 0-361.297707 0-69.64191-44.812119-80.521776-61.239638-80.467915-85.207658 0.215443-170.361456 0-255.515254 0-1.238797 0-9.69493 0.323164-9.694929 10.826005z m438.426257 547.709657c20.359352-19.120555 17.18157-45.027562 0-67.810646-10.341258-13.842205-40.180097-14.542394-55.530401 0-125.76478 118.439722-370.938776 347.078477-442.088786 413.973491-5.22449 4.901325-26.876499 20.19777-50.575216-2.585315 0 0-324.187671-298.926993-443.650747-411.388176-16.158216-15.242584-43.788765-15.242584-59.516095 0-15.619609 21.544288-15.619609 49.498001 0 64.3097 66.679571 63.017042 133.520724 125.710919 200.361877 188.512518C301.081422 699.946981 390.167052 783.592678 479.198822 867.507679c40.39554 38.025668 79.713865 38.025668 120.109404-0.269303 47.88218-45.296865 422.268041-397.061224 463.740796-436.056386z"  horiz-adv-x="1077" />

    
    <glyph glyph-name="shouyexuanzezhuangtai" unicode="&#58883;" d="M598.068253-116.527285v185.009042c0 8.994617-4.201079 13.464996-12.603236 13.464995h-144.883354c-8.348297 0-12.495516-4.470379-12.495516-13.464995V-116.581145c-2.154399-9.317777-9.533217-10.771997-13.788156-10.771997-80.251375 0-176.768464 0.2693-257.019839 0.2693-37.540408 0-65.386019 35.870749-65.386019 80.143655 0 118.168803 0.21544 231.921087 0.70018 350.089889 0 6.247758 0 24.129272 15.296235 34.25495 72.657117 68.186738 393.770336 366.409464 398.563874 370.718262 7.001798 7.271098 13.572716 3.608619 17.450634 0 52.998223-49.012585 297.307106-277.594352 386.014498-359.569246 10.233397-9.425497 14.542195-19.012574 14.542196-34.201089-0.64632-112.244205 0-249.156281 0-361.292766 0-69.640958-44.811506-80.520675-61.238801-80.466815-85.206493 0.21544-170.359126 0-255.511759 0-1.23878 0-9.694797 0.32316-9.694797 10.825857z m381.274819 598.384411c18.096954-17.073615 15.242375-40.125687 0-60.430901-9.263917-12.280076-35.816889-12.926396-49.551184 0-112.028765 105.565567-330.430996 309.264022-393.824196 368.833163-4.685819 4.362659-23.967692 17.989234-45.080805-2.262119 0 0-288.797229-266.337616-395.278415-366.571044a39.587087 39.587087 0 0 0-53.052084 0c-13.895876 19.228014-13.895876 44.111326 0 57.307022 59.407561 56.122102 119.030562 112.028765 178.491984 167.989287C300.384127 721.31861 379.827602 795.806967 459.109497 870.618483c35.978469 33.877929 70.987458 33.877929 107.073646-0.2693 42.549387-40.341127 376.211981-353.752368 413.106069-388.492057z"  horiz-adv-x="1024" />

    
    <glyph glyph-name="xitongguanlitubiao" unicode="&#58884;" d="M910.848 89.088l-205.8752 203.3664a212.6848 212.6848 0 0 1 20.6336 91.648 213.1456 213.1456 0 0 1-213.504 213.2992c-19.5584 0-38.912-2.56-56.9856-7.68l91.392-90.9312c37.888-38.0928 34.9184-101.888-6.144-142.9504-40.96-40.7552-105.0624-43.5712-142.9504-6.0928l-91.136 91.6992A213.7088 213.7088 0 0 1 512 170.24a209.408 209.408 0 0 1 91.392 20.7872l205.0048-203.6736c26.1632-25.6512 69.9392-24.1152 97.9456 4.352 28.0576 27.8016 30.0544 71.8848 4.4544 97.4336m-55.2448-82.944a36.6592 36.6592 0 0 0-36.608 36.352c0 19.456 16.7936 35.584 36.608 35.584a35.8912 35.8912 0 1 0 0-71.8848m104.6528 472.4736h-20.8896l-48.5888 0.512h-0.3072a61.2352 61.2352 0 0 0-27.2384 9.5744c-0.5632 0-0.7168 0.256-1.024 0.7168a62.5664 62.5664 0 0 0-24.7808 73.1648c1.9968 7.0144 5.5296 13.824 10.24 19.456l10.6496 11.008 24.2688 23.9104 14.1824 14.5408a74.752 74.752 0 0 1-0.6656 92.0576l-41.6768 42.8032c-27.8016 21.1968-66.048 21.9136-93.1328 1.28l-15.104-14.4384-33.792-34.56h-0.512c-18.3808-14.8992-43.8272-17.8176-64.8192-8.5504a66.816 66.816 0 0 0-20.0704 13.568 66.7648 66.7648 0 0 0-17.8176 37.5296V831.2832A74.496 74.496 0 0 1 543.1808 896H483.7376a75.9296 75.9296 0 0 1-66.56-64.256v-69.5296c-0.2048-1.7408-0.768-3.7376-0.8704-5.2736v-0.5632c-0.6144-1.792-0.7168-3.5328-0.9728-5.0688-0.6656 0-0.6656-0.6656-0.6656-0.6656-0.6144-1.536-0.9728-3.9936-1.8944-5.0688-0.6144-1.9968-1.6384-3.5328-2.56-5.2736v-0.256c-3.6864-7.4752-8.704-13.824-15.5136-19.3024a64.1024 64.1024 0 0 0-41.4208-15.1552c-14.7456 0-28.6208 5.0688-39.2704 13.824l-10.752 10.9056-24.2176 23.7056-14.6432 14.848a74.9056 74.9056 0 0 1-92.16-1.024l-42.5984-42.0864a75.776 75.776 0 0 1-1.3312-92.5184l14.6944-14.3872 34.304-34.2528c0.768-1.024 1.2288-1.9968 1.9456-3.072 0.4608-0.2048 0.8192-1.024 1.7408-2.2016 0.512-0.5632 0.8192-1.9968 1.536-2.816 0-0.256 1.1776-1.28 1.1776-1.9968 0.5632-0.8192 1.28-2.4576 1.9968-3.5328 0-0.5632 0.2048-1.28 0.5632-1.9968 0.5632-0.8192 0.8192-2.4576 1.8944-3.7376 0-0.4608 0.1024-1.024 0.3584-1.7408 0.1024-2.048 1.1264-3.5328 1.1264-5.5296a19.456 19.456 0 0 0 0.8704-5.7344 61.952 61.952 0 0 0-18.3296-53.0944 62.1056 62.1056 0 0 0-37.5296-18.176H65.0752A75.776 75.776 0 0 1 0.256 415.1808L0 355.328c3.5328-34.3552 30.2592-61.3376 64.256-66.048h20.8896l48.5888-0.6656c1.7408-0.256 4.1984-0.256 5.8368-0.8192h1.6384c1.536-0.5632 2.4576-1.024 4.2496-1.28 26.2656-8.0896 45.1584-32.512 45.1584-61.44 0-14.6432-5.0688-28.9792-13.9776-39.8848l-10.6496-10.2912-24.576-23.7056-14.4896-14.5408a76.1344 76.1344 0 0 1 0.7168-92.2624l42.4448-42.8032c27.136-21.4528 65.024-21.6576 92.5184-0.8192l14.4384 14.4384 34.816 33.9968c0 0.512 0.256 0.512 0.7168 0.7168 1.3312 1.28 2.816 1.9968 3.7888 3.2768 1.1776 0.2048 1.3824 0.2048 2.3552 0.8192 0.5632 0.512 1.7408 1.28 2.56 1.9968 1.1776 0.7168 2.7136 0.8192 3.9936 1.536 0.7168 0.4608 1.28 0.5632 1.536 1.024 1.8432 0.256 3.072 0.8192 5.4784 1.536 2.1504 0.5632 3.5328 1.536 5.0688 1.536H337.92c1.6384 0.4608 3.4304 0.7168 5.2736 1.024h0.512c1.536 0 3.072 0 4.3008 0.7168 17.7152 0.6144 35.7888-5.5296 48.9472-19.0976 10.9056-10.5472 16.64-24.1664 18.5344-37.9904l-0.256-14.848v-54.4256c4.096-34.5088 31.4368-61.44 65.536-64.9728h59.9552a74.496 74.496 0 0 1 66.048 63.7952v20.6336l0.6144 35.0208v14.08a62.0544 62.0544 0 0 0 14.6432 34.4576c0.512 0.256 0.9216 1.536 1.9968 2.048a72.704 72.704 0 0 0 12.8 11.1104c1.3824 0.2048 2.816 1.28 3.7376 1.9968 1.024 0.5632 1.024 0.5632 1.536 0.5632 0.5632 0.256 1.024 0.256 1.1776 0.256 1.1264 0.8192 2.2016 0.8192 3.584 1.536l-57.344 57.1904c-24.832-7.2704-51.1488-10.752-78.2336-10.752-155.136 0.2048-280.2176 125.7472-279.6032 280.1664a280.32 280.32 0 1 0 560.64-0.8192 274.2784 274.2784 0 0 0-11.1104-76.0832l57.856-56.832c2.8672 6.7584 7.5776 12.6464 12.8512 18.6368 5.9904 5.7344 13.824 10.0864 20.992 12.8512 5.4272 2.5088 11.0592 4.2496 16.4352 4.8128h69.888A75.0592 75.0592 0 0 1 1024 352.256V412.7232a74.3424 74.3424 0 0 1-63.7952 66.048"  horiz-adv-x="1024" />

    
    <glyph glyph-name="xitongguanlixuanzezhuangtai" unicode="&#58885;" d="M910.848 89.088l-205.8752 203.3664a212.6848 212.6848 0 0 1 20.6336 91.648 213.1456 213.1456 0 0 1-213.504 213.2992c-19.5584 0-38.912-2.56-56.9856-7.68l91.392-90.9312c37.888-38.0928 34.9184-101.888-6.144-142.9504-40.96-40.7552-105.0624-43.5712-142.9504-6.0928l-91.136 91.6992A213.7088 213.7088 0 0 1 512 170.24a209.408 209.408 0 0 1 91.392 20.7872l205.0048-203.6736c26.1632-25.6512 69.9392-24.1152 97.9456 4.352 28.0576 27.8016 30.0544 71.8848 4.4544 97.4336m-55.2448-82.944a36.6592 36.6592 0 0 0-36.608 36.352c0 19.456 16.7936 35.584 36.608 35.584a35.8912 35.8912 0 1 0 0-71.8848m104.6528 472.4736h-20.8896l-48.5888 0.512h-0.3072a61.2352 61.2352 0 0 0-27.2384 9.5744c-0.5632 0-0.7168 0.256-1.024 0.7168a62.5664 62.5664 0 0 0-24.7808 73.1648c1.9968 7.0144 5.5296 13.824 10.24 19.456l10.6496 11.008 24.2688 23.9104 14.1824 14.5408a74.752 74.752 0 0 1-0.6656 92.0576l-41.6768 42.8032c-27.8016 21.1968-66.048 21.9136-93.1328 1.28l-15.104-14.4384-33.792-34.56h-0.512c-18.3808-14.8992-43.8272-17.8176-64.8192-8.5504a66.816 66.816 0 0 0-20.0704 13.568 66.7648 66.7648 0 0 0-17.8176 37.5296V831.2832A74.496 74.496 0 0 1 543.1808 896H483.7376a75.9296 75.9296 0 0 1-66.56-64.256v-69.5296c-0.2048-1.7408-0.768-3.7376-0.8704-5.2736v-0.5632c-0.6144-1.792-0.7168-3.5328-0.9728-5.0688-0.6656 0-0.6656-0.6656-0.6656-0.6656-0.6144-1.536-0.9728-3.9936-1.8944-5.0688-0.6144-1.9968-1.6384-3.5328-2.56-5.2736v-0.256c-3.6864-7.4752-8.704-13.824-15.5136-19.3024a64.1024 64.1024 0 0 0-41.4208-15.1552c-14.7456 0-28.6208 5.0688-39.2704 13.824l-10.752 10.9056-24.2176 23.7056-14.6432 14.848a74.9056 74.9056 0 0 1-92.16-1.024l-42.5984-42.0864a75.776 75.776 0 0 1-1.3312-92.5184l14.6944-14.3872 34.304-34.2528c0.768-1.024 1.2288-1.9968 1.9456-3.072 0.4608-0.2048 0.8192-1.024 1.7408-2.2016 0.512-0.5632 0.8192-1.9968 1.536-2.816 0-0.256 1.1776-1.28 1.1776-1.9968 0.5632-0.8192 1.28-2.4576 1.9968-3.5328 0-0.5632 0.2048-1.28 0.5632-1.9968 0.5632-0.8192 0.8192-2.4576 1.8944-3.7376 0-0.4608 0.1024-1.024 0.3584-1.7408 0.1024-2.048 1.1264-3.5328 1.1264-5.5296a19.456 19.456 0 0 0 0.8704-5.7344 61.952 61.952 0 0 0-18.3296-53.0944 62.1056 62.1056 0 0 0-37.5296-18.176H65.0752A75.776 75.776 0 0 1 0.256 415.1808L0 355.328c3.5328-34.3552 30.2592-61.3376 64.256-66.048h20.8896l48.5888-0.6656c1.7408-0.256 4.1984-0.256 5.8368-0.8192h1.6384c1.536-0.5632 2.4576-1.024 4.2496-1.28 26.2656-8.0896 45.1584-32.512 45.1584-61.44 0-14.6432-5.0688-28.9792-13.9776-39.8848l-10.6496-10.2912-24.576-23.7056-14.4896-14.5408a76.1344 76.1344 0 0 1 0.7168-92.2624l42.4448-42.8032c27.136-21.4528 65.024-21.6576 92.5184-0.8192l14.4384 14.4384 34.816 33.9968c0 0.512 0.256 0.512 0.7168 0.7168 1.3312 1.28 2.816 1.9968 3.7888 3.2768 1.1776 0.2048 1.3824 0.2048 2.3552 0.8192 0.5632 0.512 1.7408 1.28 2.56 1.9968 1.1776 0.7168 2.7136 0.8192 3.9936 1.536 0.7168 0.4608 1.28 0.5632 1.536 1.024 1.8432 0.256 3.072 0.8192 5.4784 1.536 2.1504 0.5632 3.5328 1.536 5.0688 1.536H337.92c1.6384 0.4608 3.4304 0.7168 5.2736 1.024h0.512c1.536 0 3.072 0 4.3008 0.7168 17.7152 0.6144 35.7888-5.5296 48.9472-19.0976 10.9056-10.5472 16.64-24.1664 18.5344-37.9904l-0.256-14.848v-54.4256c4.096-34.5088 31.4368-61.44 65.536-64.9728h59.9552a74.496 74.496 0 0 1 66.048 63.7952v20.6336l0.6144 35.0208v14.08a62.0544 62.0544 0 0 0 14.6432 34.4576c0.512 0.256 0.9216 1.536 1.9968 2.048a72.704 72.704 0 0 0 12.8 11.1104c1.3824 0.2048 2.816 1.28 3.7376 1.9968 1.024 0.5632 1.024 0.5632 1.536 0.5632 0.5632 0.256 1.024 0.256 1.1776 0.256 1.1264 0.8192 2.2016 0.8192 3.584 1.536l-57.344 57.1904c-24.832-7.2704-51.1488-10.752-78.2336-10.752-155.136 0.2048-280.2176 125.7472-279.6032 280.1664a280.32 280.32 0 1 0 560.64-0.8192 274.2784 274.2784 0 0 0-11.1104-76.0832l57.856-56.832c2.8672 6.7584 7.5776 12.6464 12.8512 18.6368 5.9904 5.7344 13.824 10.0864 20.992 12.8512 5.4272 2.5088 11.0592 4.2496 16.4352 4.8128h69.888A75.0592 75.0592 0 0 1 1024 352.256V412.7232a74.3424 74.3424 0 0 1-63.7952 66.048"  horiz-adv-x="1024" />

    
    <glyph glyph-name="jichushujuguanlitubiao" unicode="&#58886;" d="M654.916344 449.0027v-366.777728c0-26.008248-9.625099-47.920708-30.411218-64.150264a63.945475 63.945475 0 0 0-37.578846-12.952926c-31.230376 0-62.358357-0.819157-92.769576 0-35.991728 0.819157-65.532592 32.459112-67.938867 68.143656V818.2379c0 32.459112 13.567295 56.009887 42.391395 69.781971 7.167627 4.095787 18.379844 7.321219 27.953747 7.321219a1503.768204 1503.768204 0 0 0 85.550751 0 72.597825 72.597825 0 0 0 71.983457-69.781971v-11.365809c0.819157-121.747269 0.819157-243.443341 0.819157-365.19061zM549.347434-127.172139c-141.560639 0-283.889238 1.638315-426.217837-0.819157C51.197338-128.810454 3.993392-71.981409 0-10.23742V692.446041c0 7.321219 0.819157 14.642439 3.174235 21.1445 5.631707 15.359201 19.966962 23.550775 35.223768 20.274146 13.567295-2.457472 25.598669-15.410399 26.366629-30.871995 0.819157-4.04459 0.819157-8.089179 0.819158-11.314611V5.121782c0-18.687028 4.761352-34.916584 18.379844-47.869511a51.197338 51.197338 0 0 1 33.585453-13.004124h6.399668c287.063473 0 574.126945 0 861.190418 0.819158 12.799334 0 24.011551-3.27663 31.998336-14.642439 14.386452-20.274146 4.81255-50.275786-17.611884-55.95869-4.761352-1.638315-9.573902-1.638315-14.335255-1.638315H549.347434z m159.940483 432.566307c0 74.645718-0.819157 149.291437 0 223.937155 0 34.097427 18.379844 60.924832 47.971905 71.420286 7.986785 2.457472 15.973569 4.095787 24.779512 4.095787a1420.57253 1420.57253 0 0 0 83.144476 0c41.572238 0 73.570574-32.510309 73.570575-74.696916v-451.202137c0-41.367449-29.592061-73.007404-70.345142-74.645719-30.411219-0.819157-61.590397-0.819157-91.950419 0-35.991728 0.819157-65.58379 32.459112-67.170907 68.143657v232.947887z m-558.972533-76.284034v147.653122c0 32.459112 13.618492 56.009887 42.391395 69.833169 7.986785 4.04459 18.431042 6.450865 28.004944 6.450865 29.592061 0.819157 58.364965 0.819157 87.957026 0a72.290641 72.290641 0 0 0 70.345142-69.781972v-302.678661c0-36.503702-21.554079-64.918224-54.371572-73.877758-5.631707-1.587117-11.212217-2.406275-17.560687-2.406275-28.824101 0-57.597005-0.819157-86.369909 0-42.391396 0.819157-71.164299 32.459112-71.983457 77.103191 1.587117 49.507826 1.587117 98.196494 1.587118 147.704319z"  horiz-adv-x="1024" />

    
    <glyph glyph-name="jichushujuguanlixuanze" unicode="&#58887;" d="M654.916344 449.0027v-366.777728c0-26.008248-9.625099-47.920708-30.411218-64.150264a63.945475 63.945475 0 0 0-37.578846-12.952926c-31.230376 0-62.358357-0.819157-92.769576 0-35.991728 0.819157-65.532592 32.459112-67.938867 68.143656V818.2379c0 32.459112 13.567295 56.009887 42.391395 69.781971 7.167627 4.095787 18.379844 7.321219 27.953747 7.321219a1503.768204 1503.768204 0 0 0 85.550751 0 72.597825 72.597825 0 0 0 71.983457-69.781971v-11.365809c0.819157-121.747269 0.819157-243.443341 0.819157-365.19061zM549.347434-127.172139c-141.560639 0-283.889238 1.638315-426.217837-0.819157C51.197338-128.810454 3.993392-71.981409 0-10.23742V692.446041c0 7.321219 0.819157 14.642439 3.174235 21.1445 5.631707 15.359201 19.966962 23.550775 35.223768 20.274146 13.567295-2.457472 25.598669-15.410399 26.366629-30.871995 0.819157-4.04459 0.819157-8.089179 0.819158-11.314611V5.121782c0-18.687028 4.761352-34.916584 18.379844-47.869511a51.197338 51.197338 0 0 1 33.585453-13.004124h6.399668c287.063473 0 574.126945 0 861.190418 0.819158 12.799334 0 24.011551-3.27663 31.998336-14.642439 14.386452-20.274146 4.81255-50.275786-17.611884-55.95869-4.761352-1.638315-9.573902-1.638315-14.335255-1.638315H549.347434z m159.940483 432.566307c0 74.645718-0.819157 149.291437 0 223.937155 0 34.097427 18.379844 60.924832 47.971905 71.420286 7.986785 2.457472 15.973569 4.095787 24.779512 4.095787a1420.57253 1420.57253 0 0 0 83.144476 0c41.572238 0 73.570574-32.510309 73.570575-74.696916v-451.202137c0-41.367449-29.592061-73.007404-70.345142-74.645719-30.411219-0.819157-61.590397-0.819157-91.950419 0-35.991728 0.819157-65.58379 32.459112-67.170907 68.143657v232.947887z m-558.972533-76.284034v147.653122c0 32.459112 13.618492 56.009887 42.391395 69.833169 7.986785 4.04459 18.431042 6.450865 28.004944 6.450865 29.592061 0.819157 58.364965 0.819157 87.957026 0a72.290641 72.290641 0 0 0 70.345142-69.781972v-302.678661c0-36.503702-21.554079-64.918224-54.371572-73.877758-5.631707-1.587117-11.212217-2.406275-17.560687-2.406275-28.824101 0-57.597005-0.819157-86.369909 0-42.391396 0.819157-71.164299 32.459112-71.983457 77.103191 1.587117 49.507826 1.587117 98.196494 1.587118 147.704319z"  horiz-adv-x="1024" />

    
    <glyph glyph-name="liuchengyewupeizhiguanlitubiao" unicode="&#58888;" d="M947.2 246.272l34.1504 34.4064L921.6 340.8896l-34.1504-34.4064c-21.2992 17.152-46.8992 25.8048-76.8 30.1056V384h-85.2992v-47.36c-25.6-4.352-51.2-17.2032-76.8-30.1056L614.4 340.992l-59.7504-60.2112 34.1504-34.4064c-12.8-21.504-25.6-47.3088-29.8496-77.4144H512v-86.016h46.9504c4.2496-25.856 17.0496-51.712 29.8496-77.4656l-34.1504-30.1056L614.4-84.8896l34.1504 34.4064c21.2992-17.2544 46.8992-25.8048 76.8-30.1568V-128h85.2992v43.008c25.6 4.352 51.2 17.2032 76.8 30.1056l34.1504-34.4064 59.7504 60.2112-34.1504 34.4064c12.8 21.504 25.6 47.3088 29.8496 77.4656H1024v86.016h-46.9504c-4.2496 30.1568-17.0496 55.9104-29.8496 77.4656zM768-3.2256c-68.2496 0-128 60.2112-128 129.024a128.8704 128.8704 0 0 0 128 129.024c72.5504 0 128-55.8592 128-129.024-0.3584-71.424-57.5488-129.1264-128-129.1264v0.1024zM930.9184 367.8208l-27.4944-27.648c-24.8832 19.968-32.1536 30.0544-66.9696 35.0208V430.592l-138.7008-0.0512v-55.296c-29.8496-5.0176-26.3168-7.68-56.1664-22.7328l-39.8336 40.1408-96.1024-99.9936 39.8336-40.1408c-14.9504-25.1392-20.3264-19.456-25.2928-54.6816H465.408v-140.3904h54.784c4.9664-30.1568 10.3424-21.4528 25.2928-51.5584l-39.8336-35.072 40.6016-44.6464H102.4a102.4 102.4 0 0 0-102.4 102.4V754.5856a102.4 102.4 0 0 0 102.4 102.4h726.1184a102.4 102.4 0 0 0 102.4-102.4v-386.7648z m-275.712 184.5248H458.8032c-11.1616 0-20.48-8.8576-20.48-20.48v-20.48l-212.4288-0.3584 1.024 165.6832 335.104-3.3792v-20.48c0-11.1616 9.3184-20.0192 20.48-20.0192h196.9152c11.1616 0 20.48 8.8576 20.48 20.48V730.624a20.2752 20.2752 0 0 1-20.48 19.968h-196.9152c-11.1616 0-20.48-8.8576-20.48-20.48v-20.48l-350.464 3.3792c-11.2128 0-20.48-8.8576-20.48-20.48l1.7408-485.4784h-40.4992c-11.1616 0-20.48-8.8576-20.48-20.48v-101.4784c0-11.1616 9.3184-20.0192 20.48-20.0192h222.9248c11.1616 0 20.0192 9.3184 20.0192 20.48v101.4784c0 11.1616-8.8576 20.48-20.48 20.48H228.6592L225.8944 475.136l212.4288 0.3584v-20.48c0-11.1616 9.3184-19.968 20.48-19.968h196.864c11.1616 0 20.48 8.8064 20.48 20.48v76.288a21.4016 21.4016 0 0 1-20.9408 20.48z"  horiz-adv-x="1024" />

    
    <glyph glyph-name="jichushujuguanlixuanze1" unicode="&#58889;" d="M947.2 246.272l34.1504 34.4064L921.6 340.8896l-34.1504-34.4064c-21.2992 17.152-46.8992 25.8048-76.8 30.1056V384h-85.2992v-47.36c-25.6-4.352-51.2-17.2032-76.8-30.1056L614.4 340.992l-59.7504-60.2112 34.1504-34.4064c-12.8-21.504-25.6-47.3088-29.8496-77.4144H512v-86.016h46.9504c4.2496-25.856 17.0496-51.712 29.8496-77.4656l-34.1504-30.1056L614.4-84.8896l34.1504 34.4064c21.2992-17.2544 46.8992-25.8048 76.8-30.1568V-128h85.2992v43.008c25.6 4.352 51.2 17.2032 76.8 30.1056l34.1504-34.4064 59.7504 60.2112-34.1504 34.4064c12.8 21.504 25.6 47.3088 29.8496 77.4656H1024v86.016h-46.9504c-4.2496 30.1568-17.0496 55.9104-29.8496 77.4656zM768-3.2256c-68.2496 0-128 60.2112-128 129.024a128.8704 128.8704 0 0 0 128 129.024c72.5504 0 128-55.8592 128-129.024-0.3584-71.424-57.5488-129.1264-128-129.1264v0.1024zM930.9184 367.8208l-27.4944-27.648c-24.8832 19.968-32.1536 30.0544-66.9696 35.0208V430.592l-138.7008-0.0512v-55.296c-29.8496-5.0176-26.3168-7.68-56.1664-22.7328l-39.8336 40.1408-96.1024-99.9936 39.8336-40.1408c-14.9504-25.1392-20.3264-19.456-25.2928-54.6816H465.408v-140.3904h54.784c4.9664-30.1568 10.3424-21.4528 25.2928-51.5584l-39.8336-35.072 40.6016-44.6464H102.4a102.4 102.4 0 0 0-102.4 102.4V754.5856a102.4 102.4 0 0 0 102.4 102.4h726.1184a102.4 102.4 0 0 0 102.4-102.4v-386.7648z m-275.712 184.5248H458.8032c-11.1616 0-20.48-8.8576-20.48-20.48v-20.48l-212.4288-0.3584 1.024 165.6832 335.104-3.3792v-20.48c0-11.1616 9.3184-20.0192 20.48-20.0192h196.9152c11.1616 0 20.48 8.8576 20.48 20.48V730.624a20.2752 20.2752 0 0 1-20.48 19.968h-196.9152c-11.1616 0-20.48-8.8576-20.48-20.48v-20.48l-350.464 3.3792c-11.2128 0-20.48-8.8576-20.48-20.48l1.7408-485.4784h-40.4992c-11.1616 0-20.48-8.8576-20.48-20.48v-101.4784c0-11.1616 9.3184-20.0192 20.48-20.0192h222.9248c11.1616 0 20.0192 9.3184 20.0192 20.48v101.4784c0 11.1616-8.8576 20.48-20.48 20.48H228.6592L225.8944 475.136l212.4288 0.3584v-20.48c0-11.1616 9.3184-19.968 20.48-19.968h196.864c11.1616 0 20.48 8.8064 20.48 20.48v76.288a21.4016 21.4016 0 0 1-20.9408 20.48z"  horiz-adv-x="1024" />

    
    <glyph glyph-name="liuchengyewushujuguanlitubiao" unicode="&#58890;" d="M947.2 246.272l34.1504 34.4064L921.6 340.8896l-34.1504-34.4064c-21.2992 17.152-46.8992 25.8048-76.8 30.1056V384h-85.2992v-47.36c-25.6-4.352-51.2-17.2032-76.8-30.1056L614.4 340.992l-59.7504-60.2112 34.1504-34.4064c-12.8-21.504-25.6-47.3088-29.8496-77.4144H512v-86.016h46.9504c4.2496-25.856 17.0496-51.712 29.8496-77.4656l-34.1504-30.1056L614.4-84.8896l34.1504 34.4064c21.2992-17.2544 46.8992-25.8048 76.8-30.1568V-128h85.2992v43.008c25.6 4.352 51.2 17.2032 76.8 30.1056l34.1504-34.4064 59.7504 60.2112-34.1504 34.4064c12.8 21.504 25.6 47.3088 29.8496 77.4656H1024v86.016h-46.9504c-4.2496 30.1568-17.0496 55.9104-29.8496 77.4656zM768-3.2256c-68.2496 0-128 60.2112-128 129.024a128.8704 128.8704 0 0 0 128 129.024c72.5504 0 128-55.8592 128-129.024-0.3584-71.424-57.5488-129.1264-128-129.1264v0.1024zM930.9184 367.8208l-27.4944-27.648c-24.8832 19.968-32.1536 30.0544-66.9696 35.0208V430.592l-138.7008-0.0512v-55.296c-29.8496-5.0176-26.3168-7.68-56.1664-22.7328l-39.8336 40.1408-96.1024-99.9936 39.8336-40.1408c-14.9504-25.1392-20.3264-19.456-25.2928-54.6816H465.408v-140.3904h54.784c4.9664-30.1568 10.3424-21.4528 25.2928-51.5584l-39.8336-35.072 40.6016-44.6464H102.4a102.4 102.4 0 0 0-102.4 102.4V789.8624a102.4 102.4 0 0 0 102.4 102.4h726.1184a102.4 102.4 0 0 0 102.4-102.4v-422.0416zM152.32 725.4528c-11.1616 0-20.48-8.8064-20.48-20.48v-619.8784c0-11.1616 9.3184-20.0192 20.48-20.0192l87.552-0.512c11.2128 0 20.0704 9.3696 20.0704 20.48V705.024c0 11.2128-8.8576 20.48-20.48 20.48H152.32z m256 0c-11.1616 0-20.48-6.5536-20.48-15.2064v-372.8384c0-8.2944 9.3184-14.848 20.48-14.848l87.552-0.3584c11.2128 0 20.0704 6.912 20.0704 15.2064V710.2464c0 8.2944-8.8576 15.2064-20.48 15.2064H408.32z m256 0c-11.1616 0-20.48-3.9424-20.48-9.216l-0.512-222.976c0-5.0176 9.3184-9.0112 20.48-9.0112l87.6544-0.2048c11.1616 0 19.968 4.1984 19.968 9.216l0.512 223.0272c0 5.0176-8.8576 9.216-20.48 9.216h-87.1424z"  horiz-adv-x="1024" />

    
    <glyph glyph-name="liuchengyewushujuguanlixuanze" unicode="&#58891;" d="M947.2 246.272l34.1504 34.4064L921.6 340.8896l-34.1504-34.4064c-21.2992 17.152-46.8992 25.8048-76.8 30.1056V384h-85.2992v-47.36c-25.6-4.352-51.2-17.2032-76.8-30.1056L614.4 340.992l-59.7504-60.2112 34.1504-34.4064c-12.8-21.504-25.6-47.3088-29.8496-77.4144H512v-86.016h46.9504c4.2496-25.856 17.0496-51.712 29.8496-77.4656l-34.1504-30.1056L614.4-84.8896l34.1504 34.4064c21.2992-17.2544 46.8992-25.8048 76.8-30.1568V-128h85.2992v43.008c25.6 4.352 51.2 17.2032 76.8 30.1056l34.1504-34.4064 59.7504 60.2112-34.1504 34.4064c12.8 21.504 25.6 47.3088 29.8496 77.4656H1024v86.016h-46.9504c-4.2496 30.1568-17.0496 55.9104-29.8496 77.4656zM768-3.2256c-68.2496 0-128 60.2112-128 129.024a128.8704 128.8704 0 0 0 128 129.024c72.5504 0 128-55.8592 128-129.024-0.3584-71.424-57.5488-129.1264-128-129.1264v0.1024zM930.9184 367.8208l-27.4944-27.648c-24.8832 19.968-32.1536 30.0544-66.9696 35.0208V430.592l-138.7008-0.0512v-55.296c-29.8496-5.0176-26.3168-7.68-56.1664-22.7328l-39.8336 40.1408-96.1024-99.9936 39.8336-40.1408c-14.9504-25.1392-20.3264-19.456-25.2928-54.6816H465.408v-140.3904h54.784c4.9664-30.1568 10.3424-21.4528 25.2928-51.5584l-39.8336-35.072 40.6016-44.6464H102.4a102.4 102.4 0 0 0-102.4 102.4V793.6a102.4 102.4 0 0 0 102.4 102.4h726.1184a102.4 102.4 0 0 0 102.4-102.4v-425.7792zM152.32 725.4528c-11.1616 0-20.48-8.8064-20.48-20.48v-619.8784c0-11.1616 9.3184-20.0192 20.48-20.0192l87.552-0.512c11.2128 0 20.0704 9.3696 20.0704 20.48V705.024c0 11.2128-8.8576 20.48-20.48 20.48H152.32z m256 0c-11.1616 0-20.48-6.5536-20.48-15.2064v-372.8384c0-8.2944 9.3184-14.848 20.48-14.848l87.552-0.3584c11.2128 0 20.0704 6.912 20.0704 15.2064V710.2464c0 8.2944-8.8576 15.2064-20.48 15.2064H408.32z m256 0c-11.1616 0-20.48-3.9424-20.48-9.216l-0.512-222.976c0-5.0176 9.3184-9.0112 20.48-9.0112l87.6544-0.2048c11.1616 0 19.968 4.1984 19.968 9.216l0.512 223.0272c0 5.0176-8.8576 9.216-20.48 9.216h-87.1424z"  horiz-adv-x="1024" />

    
    <glyph glyph-name="zhanshipeizhiguanlitubiao" unicode="&#58892;" d="M764.010704 479.71625c0 44.325516 27.3475 84.08416 68.771709 99.933889a424.557847 424.557847 0 0 1-51.417598 123.842804 107.240884 107.240884 0 0 0-119.275933 21.920982 107.187156 107.187156 0 0 0-22.135894 119.168477A423.537017 423.537017 0 0 1 516.378824 896a107.240884 107.240884 0 0 0-99.93389-68.771709A107.240884 107.240884 0 0 0 316.296133 896a424.826486 424.826486 0 0 1-123.842804-51.36387A106.864788 106.864788 0 0 0 51.041503 703.439215 433.960229 433.960229 0 0 1 0 579.435227a107.025972 107.025972 0 0 0 0.214912-199.867779c10.638124-44.432971 28.153418-86.072092 51.417598-123.842803a107.240884 107.240884 0 0 0 119.061021-22.135894c32.075555-32.021827 39.436277-79.7322 22.082166-118.953566 38.307991-23.532819 80.108295-40.88693 123.842803-51.417598a106.757332 106.757332 0 0 0 99.718978 68.50307c45.561257 0 84.460255-28.36833 99.772706-68.50307a424.826486 424.826486 0 0 1 123.842804 51.417598 107.294611 107.294611 0 0 0 22.135894 119.007294 107.348339 107.348339 0 0 0 119.061021 22.135893c23.586547 38.307991 40.940658 80.054567 51.417598 123.842804a107.616979 107.616979 0 0 0-68.556797 100.148801v-0.053727z m-345.631566-173.218742a173.541109 173.541109 0 0 0-122.66079 296.040715 173.541109 173.541109 0 0 0 245.321581-245.214124 173.541109 173.541109 0 0 0-122.660791-50.826591zM992.730364 58.274621c0 19.771866 12.196233 37.502073 30.624901 44.594155a189.283383 189.283383 0 0 1-22.888084 55.178551 47.817829 47.817829 0 0 0-53.190619 9.724749 47.817829 47.817829 0 0 0-9.832205 53.190619 188.799832 188.799832 0 0 1-55.124823 22.888084 47.817829 47.817829 0 0 0-89.18831 0c-19.449499-4.674327-38.093079-12.357416-55.178551-22.888084a47.656645 47.656645 0 0 0-63.022824-62.969096 193.420431 193.420431 0 0 1-22.780628-55.286007 47.710373 47.710373 0 0 0 0.107456-89.080854c4.728055-19.825594 12.572328-38.361719 22.941812-55.232279a47.817829 47.817829 0 0 0 53.029435-9.832205 47.817829 47.817829 0 0 0 9.885933-53.029435c17.085471-10.530668 35.675324-18.267485 55.178551-22.941812a47.602917 47.602917 0 0 0 88.973398 0c19.449499 4.674327 38.146807 12.411144 55.178551 22.941812a47.817829 47.817829 0 0 0 9.885933 53.029435 47.817829 47.817829 0 0 0 53.083163 9.885933c10.47694 17.085471 18.213757 35.675324 22.888084 55.178551a47.979013 47.979013 0 0 0-30.571173 44.647883zM838.692481-18.986096a77.368173 77.368173 0 1 0 0 154.682617 77.368173 77.368173 0 0 0 0-154.736345z"  horiz-adv-x="1027" />

    
    <glyph glyph-name="zhanshipeizhiguanlixuanze" unicode="&#58893;" d="M764.010704 479.71625c0 44.325516 27.3475 84.08416 68.771709 99.933889a424.557847 424.557847 0 0 1-51.417598 123.842804 107.240884 107.240884 0 0 0-119.275933 21.920982 107.187156 107.187156 0 0 0-22.135894 119.168477A423.537017 423.537017 0 0 1 516.378824 896a107.240884 107.240884 0 0 0-99.93389-68.771709A107.240884 107.240884 0 0 0 316.296133 896a424.826486 424.826486 0 0 1-123.842804-51.36387A106.864788 106.864788 0 0 0 51.041503 703.439215 433.960229 433.960229 0 0 1 0 579.435227a107.025972 107.025972 0 0 0 0.214912-199.867779c10.638124-44.432971 28.153418-86.072092 51.417598-123.842803a107.240884 107.240884 0 0 0 119.061021-22.135894c32.075555-32.021827 39.436277-79.7322 22.082166-118.953566 38.307991-23.532819 80.108295-40.88693 123.842803-51.417598a106.757332 106.757332 0 0 0 99.718978 68.50307c45.561257 0 84.460255-28.36833 99.772706-68.50307a424.826486 424.826486 0 0 1 123.842804 51.417598 107.294611 107.294611 0 0 0 22.135894 119.007294 107.348339 107.348339 0 0 0 119.061021 22.135893c23.586547 38.307991 40.940658 80.054567 51.417598 123.842804a107.616979 107.616979 0 0 0-68.556797 100.148801v-0.053727z m-345.631566-173.218742a173.541109 173.541109 0 0 0-122.66079 296.040715 173.541109 173.541109 0 0 0 245.321581-245.214124 173.541109 173.541109 0 0 0-122.660791-50.826591zM992.730364 58.274621c0 19.771866 12.196233 37.502073 30.624901 44.594155a189.283383 189.283383 0 0 1-22.888084 55.178551 47.817829 47.817829 0 0 0-53.190619 9.724749 47.817829 47.817829 0 0 0-9.832205 53.190619 188.799832 188.799832 0 0 1-55.124823 22.888084 47.817829 47.817829 0 0 0-89.18831 0c-19.449499-4.674327-38.093079-12.357416-55.178551-22.888084a47.656645 47.656645 0 0 0-63.022824-62.969096 193.420431 193.420431 0 0 1-22.780628-55.286007 47.710373 47.710373 0 0 0 0.107456-89.080854c4.728055-19.825594 12.572328-38.361719 22.941812-55.232279a47.817829 47.817829 0 0 0 53.029435-9.832205 47.817829 47.817829 0 0 0 9.885933-53.029435c17.085471-10.530668 35.675324-18.267485 55.178551-22.941812a47.602917 47.602917 0 0 0 88.973398 0c19.449499 4.674327 38.146807 12.411144 55.178551 22.941812a47.817829 47.817829 0 0 0 9.885933 53.029435 47.817829 47.817829 0 0 0 53.083163 9.885933c10.47694 17.085471 18.213757 35.675324 22.888084 55.178551a47.979013 47.979013 0 0 0-30.571173 44.647883zM838.692481-18.986096a77.368173 77.368173 0 1 0 0 154.682617 77.368173 77.368173 0 0 0 0-154.736345z"  horiz-adv-x="1027" />

    
    <glyph glyph-name="jiekouwendangtubiao" unicode="&#58894;" d="M639.4624-95.9488l240.9472 183.808h-201.728c-19.6096 0-39.2192-15.3088-39.2192-33.1776v-150.6304z m201.728 890.9824H87.6288c-19.6096 0-36.352-20.4288-36.352-38.2976v-822.0672c0-17.8688 13.9776-30.6176 33.5872-30.6176h518.1952v183.808c0 17.92 19.6096 35.7376 36.4032 35.7376h240.9472V761.856c0 15.36-19.6096 35.7376-39.2192 33.1776zM180.096 212.992c0 23.04 19.6096 40.8576 44.8 40.8576 25.2416 0 44.8512-17.8688 44.8512-40.8576 0-20.3776-19.6096-40.8064-44.8512-40.8064-25.1904 0-44.8 17.8688-44.8 40.8064z m0 186.368c0 23.04 19.6096 40.8576 44.8 40.8576 25.2416 0 44.8512-17.8688 44.8512-40.8576 0-22.9376-19.6096-40.8064-44.8512-40.8064-25.1904 0-44.8 17.8688-44.8 40.8064z m0 183.808c0 23.04 19.6096 40.8576 44.8 40.8576 25.2416 0 44.8512-17.8688 44.8512-40.8064 0-20.48-19.6096-40.8576-44.8512-40.8576-25.1904 0-44.8 17.8688-44.8 40.8576z m532.224-375.296c0-10.1888-8.3968-17.8176-19.6096-17.8176H362.1632c-11.2128 0-19.6096 7.68-19.6096 17.8688v17.8688c0 10.24 8.3968 17.8688 19.6096 17.8688h330.5472c11.2128 0 19.6096-7.68 19.6096-17.92v-17.8176z m-19.6096 165.9904H362.1632c-11.2128 0-19.6096 7.68-19.6096 17.8688v17.8688c0 10.24 8.3968 17.8688 19.6096 17.8688h330.5472c11.2128 0 19.6096-7.68 19.6096-17.92v-17.8176c0-10.24-8.3968-17.92-19.6096-17.92z m19.6096 201.6768c0-10.24-8.3968-17.92-19.6096-17.92H362.1632c-11.2128 0-19.6096 7.68-19.6096 17.92v17.8688c0 10.24 8.3968 17.92 19.6096 17.92h330.5472c11.2128 0 19.6096-7.68 19.6096-17.92v-17.8688zM939.2384 879.3088H171.6992c-28.0064 0-47.616-25.5488-47.616-51.0976h756.3264c19.6096 0 36.352-17.8688 36.352-33.1776v-622.8992c28.0576 0 56.064 15.3088 56.064 40.8064V848.64c-2.816 17.92-16.7936 30.6688-33.5872 30.6688z"  horiz-adv-x="1024" />

    
    <glyph glyph-name="jiekouwendangxuanze" unicode="&#58895;" d="M639.4624-95.9488l240.9472 183.808h-201.728c-19.6096 0-39.2192-15.3088-39.2192-33.1776v-150.6304z m201.728 890.9824H87.6288c-19.6096 0-36.352-20.4288-36.352-38.2976v-822.0672c0-17.8688 13.9776-30.6176 33.5872-30.6176h518.1952v183.808c0 17.92 19.6096 35.7376 36.4032 35.7376h240.9472V761.856c0 15.36-19.6096 35.7376-39.2192 33.1776zM180.096 212.992c0 23.04 19.6096 40.8576 44.8 40.8576 25.2416 0 44.8512-17.8688 44.8512-40.8576 0-20.3776-19.6096-40.8064-44.8512-40.8064-25.1904 0-44.8 17.8688-44.8 40.8064z m0 186.368c0 23.04 19.6096 40.8576 44.8 40.8576 25.2416 0 44.8512-17.8688 44.8512-40.8576 0-22.9376-19.6096-40.8064-44.8512-40.8064-25.1904 0-44.8 17.8688-44.8 40.8064z m0 183.808c0 23.04 19.6096 40.8576 44.8 40.8576 25.2416 0 44.8512-17.8688 44.8512-40.8064 0-20.48-19.6096-40.8576-44.8512-40.8576-25.1904 0-44.8 17.8688-44.8 40.8576z m532.224-375.296c0-10.1888-8.3968-17.8176-19.6096-17.8176H362.1632c-11.2128 0-19.6096 7.68-19.6096 17.8688v17.8688c0 10.24 8.3968 17.8688 19.6096 17.8688h330.5472c11.2128 0 19.6096-7.68 19.6096-17.92v-17.8176z m-19.6096 165.9904H362.1632c-11.2128 0-19.6096 7.68-19.6096 17.8688v17.8688c0 10.24 8.3968 17.8688 19.6096 17.8688h330.5472c11.2128 0 19.6096-7.68 19.6096-17.92v-17.8176c0-10.24-8.3968-17.92-19.6096-17.92z m19.6096 201.6768c0-10.24-8.3968-17.92-19.6096-17.92H362.1632c-11.2128 0-19.6096 7.68-19.6096 17.92v17.8688c0 10.24 8.3968 17.92 19.6096 17.92h330.5472c11.2128 0 19.6096-7.68 19.6096-17.92v-17.8688zM939.2384 879.3088H171.6992c-28.0064 0-47.616-25.5488-47.616-51.0976h756.3264c19.6096 0 36.352-17.8688 36.352-33.1776v-622.8992c28.0576 0 56.064 15.3088 56.064 40.8064V848.64c-2.816 17.92-16.7936 30.6688-33.5872 30.6688z"  horiz-adv-x="1024" />

    
    <glyph glyph-name="zuoceshouhuijiantou" unicode="&#58896;" d="M98.56-31.616c43.52-42.88 102.016-48.768 175.616-17.664L736 436.224a64 64 0 0 0 92.8 0l461.696-485.504c70.784-26.368 127.36-20.48 169.728 17.664 42.496 38.272 51.2 100.864 25.856 187.776L828.8 847.36a64 64 0 0 1-92.8 0L78.72 156.16C48.384 73.984 55.04 11.52 98.56-31.616z"  horiz-adv-x="1536" />

    
    <glyph glyph-name="zuocedakaijiantou" unicode="&#58897;" d="M1437.44 799.616c-43.52 42.88-102.016 48.768-175.616 17.664L800 331.776a64 64 0 0 0-92.8 0L245.504 817.28C174.72 843.52 118.144 837.76 75.776 799.616c-42.496-38.272-51.2-100.864-25.856-187.776l657.28-691.2a64 64 0 0 1 92.8 0l657.28 691.2c30.336 82.176 23.808 144.768-19.712 187.776z"  horiz-adv-x="1536" />

    
    <glyph glyph-name="shouqi" unicode="&#58898;" d="M1035.84 166.144h-593.92c-28.8 0-52.096 29.44-52.096 65.344 0 35.968 23.296 65.344 52.16 65.344h593.92c28.8 0 52.096-29.44 52.096-65.344 0-35.968-23.296-65.344-52.16-65.344z m0 305.024h-593.92c-28.8 0-52.096 29.44-52.096 65.344 0 35.968 23.296 65.344 52.16 65.344h593.92c28.8 0 52.096-29.44 52.096-65.344 0-35.968-23.296-65.344-52.16-65.344z m-3.712 294.08H122.688c-30.72 0-57.728 27.264-58.688 63.232C63.104 865.472 88.32 896 119.872 896h909.44c30.72 0 57.728-27.264 58.688-63.168 0.896-37.056-24.256-67.584-55.872-67.584zM119.872 2.752h909.44c30.72 0 57.728-27.264 58.688-63.232 0.896-36.992-24.256-67.52-55.872-67.52H122.688c-30.72 0-57.728 27.264-58.688 63.168-0.896 37.056 24.256 67.584 55.872 67.584zM18.304 423.68l134.08 134.08A58.496 58.496 0 0 0 195.072 576c16.256 0 31.744-6.656 42.624-18.24 12.16-12.16 18.304-30.4 18.304-42.624l-6.144-262.144c0.576-33.024-26.624-60.288-60.928-60.992a55.296 55.296 0 0 0-42.688 18.24L18.304 338.432c-24.384 18.24-24.384 60.928 0 85.312v-0.064z"  horiz-adv-x="1088" />

    
    <glyph glyph-name="shouqixuanze" unicode="&#58899;" d="M1035.84 166.144h-593.92c-28.8 0-52.096 29.44-52.096 65.344 0 35.968 23.296 65.344 52.16 65.344h593.92c28.8 0 52.096-29.44 52.096-65.344 0-35.968-23.296-65.344-52.16-65.344z m0 305.024h-593.92c-28.8 0-52.096 29.44-52.096 65.344 0 35.968 23.296 65.344 52.16 65.344h593.92c28.8 0 52.096-29.44 52.096-65.344 0-35.968-23.296-65.344-52.16-65.344z m-3.712 294.08H122.688c-30.72 0-57.728 27.264-58.688 63.232C63.104 865.472 88.32 896 119.872 896h909.44c30.72 0 57.728-27.264 58.688-63.168 0.896-37.056-24.256-67.584-55.872-67.584zM119.872 2.752h909.44c30.72 0 57.728-27.264 58.688-63.232 0.896-36.992-24.256-67.52-55.872-67.52H122.688c-30.72 0-57.728 27.264-58.688 63.168-0.896 37.056 24.256 67.584 55.872 67.584zM18.304 423.68l134.08 134.08A58.496 58.496 0 0 0 195.072 576c16.256 0 31.744-6.656 42.624-18.24 12.16-12.16 18.304-30.4 18.304-42.624l-6.144-262.144c0.576-33.024-26.624-60.288-60.928-60.992a55.296 55.296 0 0 0-42.688 18.24L18.304 338.432c-24.384 18.24-24.384 60.928 0 85.312v-0.064z"  horiz-adv-x="1088" />

    
    <glyph glyph-name="dakai" unicode="&#58900;" d="M879.872 209.7152h-475.136c-23.04 0-41.6768 23.552-41.6768 52.2752 0 28.7744 18.6368 52.2752 41.728 52.2752h475.136c23.04 0 41.6768-23.552 41.6768-52.2752 0-28.7744-18.6368-52.2752-41.728-52.2752z m0 244.0192h-475.136c-23.04 0-41.6768 23.552-41.6768 52.2752 0 28.7744 18.6368 52.2752 41.728 52.2752h475.136c23.04 0 41.6768-23.552 41.6768-52.2752 0-28.7744-18.6368-52.2752-41.728-52.2752z m-2.9696 235.264H149.3504c-24.576 0-46.1824 21.8112-46.9504 50.5856C101.6832 769.1776 121.856 793.6 147.0976 793.6h727.552c24.576 0 46.1824-21.8112 46.9504-50.5344 0.7168-29.6448-19.4048-54.0672-44.6976-54.0672zM147.0976 79.0016h727.552c24.576 0 46.1824-21.8112 46.9504-50.5856 0.7168-29.5936-19.4048-54.016-44.6976-54.016H149.3504c-24.576 0-46.1824 21.8112-46.9504 50.5344-0.7168 29.6448 19.4048 54.0672 44.6976 54.0672z m145.408 336.7424c19.5584-19.456 19.5584-53.6064 0-68.1984l-102.2976-102.5536a44.2368 44.2368 0 0 0-34.1504-14.592c-27.4432 0.5632-49.152 22.3744-48.7424 48.7936L102.4 488.96c0 9.728 4.9152 24.3712 14.6432 34.0992A46.7968 46.7968 0 0 0 151.1424 537.6c13.0048 0 25.3952-5.3248 34.1504-14.592L292.5568 415.744z"  horiz-adv-x="1024" />

    
    <glyph glyph-name="dakaixuanze" unicode="&#58901;" d="M879.872 209.7152h-475.136c-23.04 0-41.6768 23.552-41.6768 52.2752 0 28.7744 18.6368 52.2752 41.728 52.2752h475.136c23.04 0 41.6768-23.552 41.6768-52.2752 0-28.7744-18.6368-52.2752-41.728-52.2752z m0 244.0192h-475.136c-23.04 0-41.6768 23.552-41.6768 52.2752 0 28.7744 18.6368 52.2752 41.728 52.2752h475.136c23.04 0 41.6768-23.552 41.6768-52.2752 0-28.7744-18.6368-52.2752-41.728-52.2752z m-2.9696 235.264H149.3504c-24.576 0-46.1824 21.8112-46.9504 50.5856C101.6832 769.1776 121.856 793.6 147.0976 793.6h727.552c24.576 0 46.1824-21.8112 46.9504-50.5344 0.7168-29.6448-19.4048-54.0672-44.6976-54.0672zM147.0976 79.0016h727.552c24.576 0 46.1824-21.8112 46.9504-50.5856 0.7168-29.5936-19.4048-54.016-44.6976-54.016H149.3504c-24.576 0-46.1824 21.8112-46.9504 50.5344-0.7168 29.6448 19.4048 54.0672 44.6976 54.0672z m145.408 336.7424c19.5584-19.456 19.5584-53.6064 0-68.1984l-102.2976-102.5536a44.2368 44.2368 0 0 0-34.1504-14.592c-27.4432 0.5632-49.152 22.3744-48.7424 48.7936L102.4 488.96c0 9.728 4.9152 24.3712 14.6432 34.0992A46.7968 46.7968 0 0 0 151.1424 537.6c13.0048 0 25.3952-5.3248 34.1504-14.592L292.5568 415.744z"  horiz-adv-x="1024" />

    
    <glyph glyph-name="daibanliucheng" unicode="&#58902;" d="M910.7968 373.76c-37.7344 20.48-80.5376 30.72-125.7984 30.72-156.0064 0-281.8048-128-281.8048-286.72 0-104.96 55.3472-197.12 138.3936-245.76H102.4a102.4 102.4 0 0 0-102.4 102.4V793.6a102.4 102.4 0 0 0 102.4 102.4h705.9968a102.4 102.4 0 0 0 102.4-102.4v-419.84zM203.776 619.52h503.1936c20.1216 0 37.7344 17.92 37.7344 38.4s-17.6128 38.4-37.7344 38.4H203.776c-20.1216 0-37.7344-17.92-37.7344-38.4s15.104-38.4 37.7344-38.4z m0-197.12h281.8048c20.1216 0 37.7344 17.92 37.7344 38.4s-17.6128 38.4-37.7344 38.4H203.776c-20.1216 0-37.7344-17.92-37.7344-38.4s15.104-38.4 37.7344-38.4z m0-176.64h125.7984c20.1216 0 37.7344 17.92 37.7344 38.4s-17.6128 38.4-37.7344 38.4H203.776c-20.1216 0-37.7344-17.92-37.7344-38.4s15.104-38.4 37.7344-38.4z m0-197.12h125.7984c20.1216 0 37.7344 17.92 37.7344 38.4s-17.6128 38.4-37.7344 38.4H203.776c-20.1216 0-37.7344-17.92-37.7344-38.4-2.5088-20.48 15.104-38.4 37.7344-38.4z m337.152 69.12c0 135.68 108.1856 245.76 241.5616 245.76 133.3248 0 241.5104-110.08 241.5104-245.76S915.8144-128 782.4896-128c-133.376 0-241.5616 110.08-241.5616 245.76z m261.632 107.52c0 15.36-12.544 30.72-30.1568 30.72-15.104 0-30.208-12.8-30.208-30.72v-133.12l95.6416-97.28c12.544-12.8 30.208-12.8 40.2432 0 12.5952 12.8 12.5952 30.72 0 40.96l-77.9776 79.36V225.28h2.5088z"  horiz-adv-x="1024" />

    
    <glyph glyph-name="xialajiantoubaise" unicode="&#58903;" d="M875.698631-72.704a104.903111 104.903111 0 0 0-79.644444-32.540444 104.903111 104.903111 0 0 0-79.644445 32.540444l-681.528889 714.524444C1.202631 674.474667-11.312924 729.201778 11.783964 773.688889 34.880853 817.948444 68.445298 850.488889 114.525298 850.488889h1364.878222c45.966222 0 90.225778-32.540444 102.627556-76.913778 21.276444-44.373333 10.695111-99.214222-24.803556-131.640889l-681.528889-714.638222z"  horiz-adv-x="1592" />

    
    <glyph glyph-name="xialajiantou" unicode="&#58904;" d="M875.698631-72.704a104.903111 104.903111 0 0 0-79.644444-32.540444 104.903111 104.903111 0 0 0-79.644445 32.540444l-681.528889 714.524444C1.202631 674.474667-11.312924 729.201778 11.783964 773.688889 34.880853 817.948444 68.445298 850.488889 114.525298 850.488889h1364.878222c45.966222 0 90.225778-32.540444 102.627556-76.913778 21.276444-44.373333 10.695111-99.214222-24.803556-131.640889l-681.528889-714.638222z"  horiz-adv-x="1592" />

    
    <glyph glyph-name="chaxun" unicode="&#58905;" d="M0 896m102.4 0l819.2 0q102.4 0 102.4-102.4l0-819.2q0-102.4-102.4-102.4l-819.2 0q-102.4 0-102.4 102.4l0 819.2q0 102.4 102.4 102.4ZM492.8 230.4a172.9792 172.9792 0 0 0-172.8 172.8 172.9792 172.9792 0 0 0 172.8 172.8A172.9792 172.9792 0 0 0 665.6 403.2 172.9792 172.9792 0 0 0 492.8 230.4m243.9936-44.032l-81.7152 81.7152a211.2 211.2 0 1 1-27.1616-27.1616l81.7408-81.7152a19.2512 19.2512 0 0 1 27.136 0 19.2512 19.2512 0 0 1 0 27.136"  horiz-adv-x="1024" />

    
    <glyph glyph-name="tianjia" unicode="&#58906;" d="M0 896m113.777778 0l796.444444 0q113.777778 0 113.777778-113.777778l0-796.444444q0-113.777778-113.777778-113.777778l-796.444444 0q-113.777778 0-113.777778 113.777778l0 796.444444q0 113.777778 113.777778 113.777778ZM539.363556 584.192v-172.828444h172.828444c15.075556 0 27.363556-12.316444 27.363556-27.363556 0-15.075556-12.316444-27.363556-27.363556-27.363556h-172.828444v-172.828444c0-15.075556-12.316444-27.363556-27.363556-27.363556a27.448889 27.448889 0 0 0-27.363556 27.363556v172.828444h-172.828444A27.448889 27.448889 0 0 0 284.444444 384c0 15.075556 12.316444 27.363556 27.363556 27.363556h172.828444v172.828444c0 15.075556 12.316444 27.363556 27.363556 27.363556 15.075556 0 27.363556-12.316444 27.363556-27.363556z"  horiz-adv-x="1024" />

    
    <glyph glyph-name="xinzeng" unicode="&#58907;" d="M913.588706 488.990118H592.293647V814.682353C592.293647 860.702118 557.537882 896 512 896S431.706353 860.702118 431.706353 814.622118v-325.632H110.411294C64.933647 488.990118 30.117647 453.752471 30.117647 407.612235S64.933647 326.174118 110.411294 326.174118h321.295059v-325.632c0-46.140235 34.755765-81.377882 80.293647-81.377883s80.293647 35.237647 80.293647 81.377883V326.234353h321.295059c45.477647 0 80.293647 35.237647 80.293647 81.317647 0 46.200471-34.816 81.438118-80.293647 81.438118z"  horiz-adv-x="1024" />

    
    <glyph glyph-name="quanxianguanli" unicode="&#58908;" d="M510.08-98.752H133.248c-41.6 0-107.648 0-107.648 80.768s68.608 121.6 107.648 134.592c119.488 39.872 180.032 79.744 203.52 141.248-88.704 52.864-149.632 162.624-149.632 289.536C187.072 725.824 307.648 870.464 456.32 870.464s269.184-144.64 269.184-323.072c0-18.304-1.28-36.352-3.776-53.824a215.424 215.424 0 0 1-211.584-215.232v-377.088zM833.216 224.32v54.144a54.08 54.08 0 0 1-53.824 53.568 53.632 53.632 0 0 1-53.888-53.568v-54.144h107.712z m-215.36 0v54.016a161.536 161.536 0 0 0 323.072 0v-54.016h0.128a53.76 53.76 0 0 0 53.76-53.312v-216.448a53.76 53.76 0 0 0-53.76-53.312H617.664a53.76 53.76 0 0 0-53.696 53.312v216.448a53.76 53.76 0 0 0 53.76 53.312h0.128z"  horiz-adv-x="1024" />

    
    <glyph glyph-name="bianji" unicode="&#58909;" d="M0 91.118881V-128h213.359331l554.324694 613.520069-213.359332 218.606921L0 91.118881z m938.166706 569.555504c20.926365 21.438325 20.926365 65.91485 0 87.865135L810.560675 879.921256c-21.438325 21.438325-64.314975 21.438325-85.241341 0L597.201344 748.53952l213.359331-219.118881 127.606031 131.253746zM426.718663-40.134864L341.477322-128H1023.920006c-2.367815 34.04534-10.87915 57.21153-25.72599 69.49857-14.782845 12.223045-33.91735 18.366565-57.531505 18.366566H426.718663z"  horiz-adv-x="1024" />

    
    <glyph glyph-name="shouquan" unicode="&#58910;" d="M721.202925 496.280982h113.400912V688.972939c0 113.27292-113.400912 202.419349-250.672333 202.419349H509.312168c-140.279233 0-250.672333-91.51428-250.672333-202.419349v-81.91488h117.11268V686.605087c0 32.63796 29.886132 94.07412 120.504469 94.074121H588.7952c64.63596 0 132.407725-34.23786 132.407725-94.074121 3.007812-113.27292 0-190.324105 0-190.324105z m-563.420786-55.67652v-291.501781C157.782139-2.631836 304.012999-127.936004 487.36154-127.936004h108.857196c180.532717 0 329.579401 122.87232 329.579402 277.102681V440.604462h-767.952003z m425.381413-240.880945v-89.146428a32.95794 32.95794 0 0 0-33.725892-33.725892h-9.5994a32.95794 32.95794 0 0 0-33.725892 33.725892V199.723517c-21.75864 14.463096-38.589588 38.525592-38.589588 65.019937A76.15524 76.15524 0 0 0 544.63796 341.858634a76.15524 76.15524 0 0 0 38.525592-142.135117z"  horiz-adv-x="1024" />

    
    <glyph glyph-name="xinzenglanse" unicode="&#58911;" d="M893.147429 355.108571H570.368v-346.258285a58.368 58.368 0 0 0-116.736 0V355.108571H130.852571a57.782857 57.782857 0 0 0 0 115.419429h322.779429V759.149714a58.368 58.368 0 0 0 116.736 0v-288.548571h322.779429a57.782857 57.782857 0 0 0 0-115.565714z"  horiz-adv-x="1024" />

    
    <glyph glyph-name="shanchu" unicode="&#58912;" d="M903.253333 598.784h-752.64c-4.693333 0-8.448-3.413333-7.936-7.338667l68.693334-666.282666c0-29.269333 28.672-53.077333 64-53.077334H771.413333c35.242667 0 63.914667 23.893333 63.914667 53.077334l76.032 666.282666c0.256 3.925333-3.413333 7.338667-8.192 7.338667z m-541.013333-595.285333h-23.552c-15.616 0-28.416 10.666667-28.416 23.637333l-29.184 375.978667c0 13.056 12.8 23.637333 28.416 23.637333h23.466667c15.616 0 28.416-10.581333 28.416-23.637333l29.269333-375.978667c0-12.970667-12.8-23.637333-28.416-23.637333z m213.248 23.978666c0-12.970667-12.8-23.552-28.416-23.552h-23.552c-15.616 0-28.416 10.581333-28.416 23.552V403.626667c0 12.970667 12.8 23.552 28.416 23.552h23.552c15.616 0 28.416-10.581333 28.416-23.552v-376.064z m173.226667 1.194667c0-12.970667-12.8-23.552-28.416-23.552h-23.466667c-15.616 0-28.416 10.581333-28.416 23.552l29.269333 375.978667c0 13.056 12.8 23.637333 28.416 23.637333h23.466667c15.701333 0 28.416-10.581333 28.416-23.637333l-29.269333-375.978667z m197.12 722.176l-849.066667-161.962667c-4.778667-0.853333-9.386667 1.536-10.581333 5.461334l-10.581334 38.485333c-8.192 29.525333 14.250667 59.221333 49.749334 66.048L862.293333 839.594667c35.584 6.826667 71.338667-11.861333 79.530667-41.301334l10.581333-38.570666c1.109333-4.010667-1.792-7.936-6.656-8.874667z m-575.317334 20.736c-7.850667 27.904 18.261333 48.469333 52.053334 55.04L540.672 849.408c33.621333 6.485333 62.549333-3.413333 70.4-31.488l13.312-41.728 53.333333 10.325333-12.458666 38.826667c-14.08 50.346667-70.229333 74.410667-130.816 62.72l-126.293334-24.405333c-60.757333-11.690667-103.850667-54.869333-89.685333-105.216l9.557333-39.253334 52.906667 10.666667-10.496 41.728z"  horiz-adv-x="1024" />

    
    <glyph glyph-name="xiangqing" unicode="&#58913;" d="M546.133333 896C263.9872 896 34.133333 666.146133 34.133333 384S264.055467-128 546.133333-128c282.146133 0 512 229.853867 512 512S828.279467 896 546.133333 896z m10.103467-802.133333c-19.2512-11.195733-35.293867-17.066667-47.5136-17.066667a34.133333 34.133333 0 0 0-25.941333 10.24 41.7792 41.7792 0 0 0-9.4208 28.672c0 38.912 23.074133 134.280533 69.700266 286.037333a62.122667 62.122667 0 0 1 3.2768 18.978134c0 6.3488-2.730667 9.216-8.465066 9.216a42.1888 42.1888 0 0 1-21.162667-7.236267c-7.9872-4.9152-25.3952-20.957867-52.701867-47.7184L443.733333 391.031467c31.061333 34.542933 58.845867 58.914133 84.241067 73.454933 25.463467 14.609067 47.104 21.9136 64.989867 21.9136 9.898667 0 17.408-1.979733 22.596266-6.3488 5.188267-4.369067 7.9872-10.24 7.9872-17.954133 0-9.284267-9.8304-47.7184-30.037333-115.370667-32.5632-110.865067-49.015467-177.493333-49.015467-200.362667 0-4.369067 0.955733-8.260267 3.2768-11.195733 2.389333-2.935467 4.778667-4.369067 7.099734-4.369067 9.8304 0 35.293867 19.456 75.776 57.890134l17.885866-18.0224c-41.915733-39.867733-72.4992-65.672533-92.296533-76.868267z m79.598933 541.354666a36.6592 36.6592 0 0 0-27.306666-12.288 27.101867 27.101867 0 0 0-28.194134 28.125867c-0.068267 11.195733 3.618133 20.48 11.810134 28.603733A38.2976 38.2976 0 0 0 619.861333 691.2c8.192 0 15.086933-2.730667 20.48-7.714133a25.941333 25.941333 0 0 0 8.123734-19.6608 42.666667 42.666667 0 0 0-12.6976-28.535467z"  horiz-adv-x="1092" />

    
    <glyph glyph-name="guanlianjiekou" unicode="&#58914;" d="M358.4 369.371429c0 29.257143-29.257143 58.514286-73.142857 58.514285H190.171429c-36.571429 0-73.142857 36.571429-73.142858 73.142857V705.828571c0 36.571429 36.571429 73.142857 73.142858 73.142858h277.942857c43.885714 0 73.142857-36.571429 73.142857-73.142858V310.857143c0-43.885714 29.257143-73.142857 58.514286-73.142857s58.514286 29.257143 58.514285 73.142857V822.857143c0 43.885714-29.257143 73.142857-73.142857 73.142857H73.142857C29.257143 896 0 866.742857 0 822.857143v-438.857143c0-36.571429 29.257143-73.142857 73.142857-73.142857h212.114286c36.571429 0 73.142857 29.257143 73.142857 58.514286zM665.6 404.48c0-29.549714 36.571429-59.099429 73.142857-59.099429h95.085714c43.885714 0 73.142857-29.622857 73.142858-73.947428v-207.140572c0-44.397714-29.257143-73.947429-73.142858-73.947428H555.885714c-43.885714 0-73.142857 29.549714-73.142857 73.947428V456.411429C482.742857 500.736 453.485714 530.285714 424.228571 530.285714S365.714286 493.275429 365.714286 456.338286v-510.390857C365.714286-98.450286 394.971429-128 438.857143-128h512c43.885714 0 73.142857 29.549714 73.142857 73.947429V389.851429c0 44.324571-29.257143 73.874286-73.142857 73.874285h-212.114286c-36.571429 0-73.142857-29.549714-73.142857-59.099428z"  horiz-adv-x="1024" />

    
    <glyph glyph-name="zhongzhi" unicode="&#58915;" d="M12.8 883.2m102.4 0l793.6 0q102.4 0 102.4-102.4l0-793.6q0-102.4-102.4-102.4l-793.6 0q-102.4 0-102.4 102.4l0 793.6q0 102.4 102.4 102.4ZM709.3248 435.84l25.6768 42.112c5.9648 10.0864 19.0976 12.4672 28.672 6.5024 9.5488-5.888 13.7216-18.3296 8.3456-27.8528l-66.2784-109.7216-35.84 22.528-74.0608 46.2592a21.4272 21.4272 0 0 0-5.9648 29.056 20.8128 20.8128 0 0 0 28.0576 7.7312l52.5568-33.2032a188.16 188.16 0 0 1-185.1136 153.6256c-103.936 0-187.5712-83.6352-187.5712-186.2656 0-103.2192 84.224-186.2656 187.5456-186.2656a187.904 187.904 0 0 1 157.056 84.2496c0.64 0.5888 0.64 1.1776 1.2032 1.1776a19.968 19.968 0 0 0 16.7424 8.8832c11.3408 0 20.8896-9.472 20.8896-20.736a21.2992 21.2992 0 0 0-3.584-11.8784 230.5024 230.5024 0 0 0-192.2816-103.1936c-126.6432 0-229.376 101.9904-229.376 227.7632S358.7328 614.4 485.3504 614.4a229.0176 229.0176 0 0 0 224-178.56z"  horiz-adv-x="1024" />

    
    <glyph glyph-name="shangchuan" unicode="&#58916;" d="M73.142857 18.285714h950.857143a73.142857 73.142857 0 0 0 73.142857-73.142857v-73.142857H0v73.142857a73.142857 73.142857 0 0 0 73.142857 73.142857z m783.213714 572.562286L609.718857 868.425143A82.870857 82.870857 0 0 1 548.571429 896c-24.283429 0-45.860571-10.825143-60.928-27.794286L240.64 591.140571a84.992 84.992 0 0 1-21.138286-55.588571c0-46.08 36.864-83.309714 82.285715-83.309714l1.901714 0.146285v-0.512h162.669714v-203.995428C466.285714 201.801143 503.149714 164.571429 548.571429 164.571429s82.285714 37.302857 82.285714 83.236571V451.803429h159.670857v0.658285c1.609143-0.073143 3.218286-0.292571 4.900571-0.292571 45.421714 0 82.285714 37.302857 82.285715 83.236571 0 21.430857-8.192 40.740571-21.357715 55.442286z m-408.356571-491.154286h219.428571a36.571429 36.571429 0 0 1 36.571429 36.571429v402.285714h-292.571429v-402.285714a36.571429 36.571429 0 0 1 36.571429-36.571429z"  horiz-adv-x="1097" />

    
    <glyph glyph-name="chakan" unicode="&#58917;" d="M1209.580308 571.234462c-141.942154 196.765538-345.796923 321.378462-578.481231 321.378461-232.684308 0-431.970462-124.612923-574.779077-321.378461-63.015385-86.803692-63.015385-215.670154 0-302.473847 142.808615-196.765538 342.961231-321.378462 574.779077-321.378461 232.684308 0 435.672615 124.612923 578.481231 321.378461 63.015385 86.803692 63.015385 215.670154 0 302.473847zM630.311385 121.934769c-162.107077 0-293.966769 134.931692-293.96677 300.740923 0 165.888 131.859692 300.819692 293.96677 300.819693 162.107077 0 293.966769-134.931692 293.966769-300.819693 0-165.809231-131.859692-300.740923-293.966769-300.740923z m4.01723 515.623385c-115.869538 0-209.998769-96.256-209.998769-214.882462 0-118.547692 94.129231-214.803692 209.998769-214.803692 115.948308 0 209.998769 96.256 209.99877 214.803692 0 118.626462-94.050462 214.882462-209.99877 214.882462z"  horiz-adv-x="1260" />

    
    <glyph glyph-name="zhongzhi1" unicode="&#58918;" d="M989.320533 464.349867l52.155734 85.6064c12.151467 20.48 38.843733 25.258667 58.299733 13.175466 19.387733-11.946667 27.8528-37.2736 16.930133-56.593066L982.016 283.648 909.312 329.386667l-150.528 94.0032a43.554133 43.554133 0 0 0-12.0832 59.050666 42.325333 42.325333 0 0 0 57.002667 15.701334l106.769066-67.515734a382.293333 382.293333 0 0 1-376.149333 312.183467c-211.1488 0-381.064533-169.984-381.064533-378.4704 0-209.7152 171.076267-378.402133 381.064533-378.402133a381.815467 381.815467 0 0 1 319.0784 171.144533c1.365333 1.160533 1.365333 2.389333 2.4576 2.389333a40.618667 40.618667 0 0 0 33.9968 18.0224c23.074133 0 42.461867-19.2512 42.461867-42.1888a43.281067 43.281067 0 0 0-7.304534-24.029866 468.309333 468.309333 0 0 0-390.690133-209.7152C277.026133-98.440533 68.266667 108.817067 68.266667 364.407467 68.266667 619.793067 277.026133 827.050667 534.254933 827.050667a465.3056 465.3056 0 0 0 455.0656-362.769067z"  horiz-adv-x="1160" />

    
    <glyph glyph-name="jiedong" unicode="&#58919;" d="M826.487101 470.831157H757.278031V641.423199C757.341995 779.329627 640.927478 895.36036 509.993129 895.36036c-134.644263 0-240.120932-105.220813-247.41283-235.899307H360.829034c10.873883 76.245112 76.37304 134.324443 152.74608 134.324443 83.664938 0 152.874008-68.953214 152.874008-159.718159v-166.946093H193.435193C160.749578 467.185208 128 441.855456 128 401.877944v-464.506715c0-36.331563 25.45768-65.371229 65.499157-65.371229h636.569929c32.749578 0 65.499157 25.45768 65.499157 65.371229V405.523893c-7.291898 32.62165-32.749578 65.307265-69.081142 65.307264z m-287.390343-304.85252v-101.638828c0-7.227934-7.291898-7.227934-7.291898-7.227934h-50.91536c-7.291898 0-7.291898 7.227934-7.291899 7.227934v101.702792c-25.45768 10.873883-43.687426 36.203635-43.687425 68.88925 0 43.559498 32.749578 76.245112 76.437004 76.245112a76.756824 76.756824 0 0 0 76.37304-76.245112c0-32.62165-18.165782-58.07933-43.623462-68.953214z"  horiz-adv-x="1024" />

    
    <glyph glyph-name="qiyong" unicode="&#58920;" d="M512-128A512 512 0 1 0 512 896a512 512 0 0 0 0-1024z m253.504 704l-328.704-321.024-178.368 174.976c-25.28 14.464-45.44 14.464-60.608 0-15.104-14.464-17.024-35.648-5.824-63.616l222.784-216.768a32 32 0 0 1 44.48-0.192l55.808 53.504L832 512.32c15.488 27.2 15.488 48.384 0 63.68s-37.632 15.296-66.496 0z"  horiz-adv-x="1024" />

    
    <glyph glyph-name="tingyong" unicode="&#58921;" d="M512-128A512 512 0 1 0 512 896a512 512 0 0 0 0-1024z m263.296 533.568H245.888c-23.04-8-34.56-22.08-34.56-42.176 0-20.032 11.52-34.112 34.56-42.176h529.408c21.376 7.04 32.128 21.12 32.128 42.24 0 20.992-10.752 35.072-32.128 42.112z"  horiz-adv-x="1024" />

    
    <glyph glyph-name="jiaosefenpei" unicode="&#58922;" d="M404.351242 842.112101C274.623485 842.112101 169.599682 738.240296 169.599682 610.368536c0-127.93576 105.087803-231.743565 234.87956-231.743566 129.727757 0 234.81556 103.807805 234.815559 231.679566 0 127.99976-105.279803 231.807565-234.879559 231.807565z m-0.128-517.951029c-222.719582 0-403.199244-177.599667-404.223242-397.247255 0-30.527943 24.703954-54.911897 55.295896-54.911897h697.790692a54.911897 54.911897 0 0 1 55.359896 54.591898c-0.831998 219.775588-181.50366 397.567255-404.223242 397.567254zM638.846802 896c-43.775918 0-84.607841-12.991976-119.039777-35.455934 0 0 21.631959-8.575984 56.191895-36.223932 8.383984-6.719987 21.759959-20.287962 40.127925-40.831923h22.719957c63.615881 0 115.199784-53.4399 115.199784-119.295776 0-65.919876-33.343937-109.119795-89.535832-118.655778-2.559995-0.447999 0-58.87989-67.071874-113.215788a230.399568 230.399568 0 0 1 47.295911 0c117.18378 8.703984 217.855592 103.807805 217.855592 231.679566S762.49457 896 638.846802 896z m44.479917-527.74301c-50.047906 2.559995-80.831848 0-132.223752-14.463973-12.095977-3.391994 39.551926-13.119975 88.319834-38.911927 48.831908-25.727952 59.263889-41.407922 62.271883-41.599922 144.12773-9.599982 220.415587-141.887734 223.551581-292.799451-0.128-1.663997 0-93.439825 0-102.527808 6.591988-7.615986 79.487851-7.615986 88.127835 0 11.583978 10.239981 10.62398 90.87983 10.62398 102.527808-0.767999 219.839588-144.12773 377.919291-340.671361 387.775273z"  horiz-adv-x="1024" />

    
    <glyph glyph-name="daoru" unicode="&#58923;" d="M859.264 378.112l3.968 5.44L750.72 484.48l220.352 226.688L863.168 835.072 849.792 837.76a1146441.472 1146441.472 0 0 0-222.272-234.88l-2.688 2.816L519.552 716.16v-338.752h339.2l0.512 0.64z m58.496-56.832v-270.464a56.512 56.512 0 0 0-56.448-56.448H176.896a56.512 56.512 0 0 0-56.448 56.448V726.208c0 31.168 25.344 56.448 56.448 56.448h265.6L384.32 839.104H176.896C114.56 839.104 64 788.544 64 726.208v-675.392c0-62.336 50.56-112.896 112.896-112.896h684.416c62.336 0 112.896 50.56 112.896 112.896v215.68l-56.448 54.784z"  horiz-adv-x="1024" />

    
    <glyph glyph-name="daochu" unicode="&#58924;" d="M631.296 837.12l-3.968-5.504 112.576-100.928-220.352-226.688 107.84-123.904 13.376-2.688a1146486.08 1146486.08 0 0 0 222.272 234.88l2.688-2.816 105.28-110.464V837.76h-339.2l-0.512-0.64z m286.464-515.84v-270.464a56.512 56.512 0 0 0-56.448-56.448H176.896a56.512 56.512 0 0 0-56.448 56.448V726.208c0 31.168 25.344 56.448 56.448 56.448h265.6L384.32 839.104H176.896C114.56 839.104 64 788.544 64 726.208v-675.392c0-62.336 50.56-112.896 112.896-112.896h684.416c62.336 0 112.896 50.56 112.896 112.896v215.68l-56.448 54.784z"  horiz-adv-x="1024" />

    
    <glyph glyph-name="shangyi" unicode="&#58925;" d="M130.2528 522.922667l121.514667 130.798933v-667.648c0-38.980267 28.0576-66.218667 67.9936-66.218667 40.7552 0 66.901333 25.941333 66.901333 66.218667V653.653333l121.378133-130.389333c15.223467-15.018667 35.0208-23.893333 53.0432-23.893333 35.771733 0 67.106133 30.9248 67.106134 66.1504 0 19.797333-7.918933 34.952533-16.110934 48.469333L371.848533 874.018133C358.877867 886.784 340.445867 893.952 319.8976 893.952c-18.978133 0-34.952533-6.007467-53.248-20.0704L30.583467 612.898133a65.399467 65.399467 0 0 1-20.0704-47.3088c0-36.522667 32.3584-66.1504 72.157866-66.1504 16.657067 0 30.9248 7.099733 47.5136 23.483734z m884.258133 141.448533c33.450667 0 60.552533 31.3344 60.552534 69.8368 0 38.570667-27.101867 69.905067-60.552534 69.905067h-325.563733c-33.450667 0-60.484267-31.3344-60.484267-69.905067 0-38.5024 26.965333-69.8368 60.484267-69.8368h325.632z m-0.341333-350.139733c33.450667 0 60.552533 31.197867 60.552533 69.905066 0 38.5024-27.170133 69.8368-60.552533 69.8368h-325.632c-33.450667 0-60.484267-31.3344-60.484267-69.8368 0-38.7072 27.0336-69.905067 60.552534-69.905066h325.563733z m2.389333-350.208c33.450667 0 60.552533 31.3344 60.552534 69.8368 0 38.570667-27.170133 69.905067-60.552534 69.905066h-325.563733c-33.450667 0-60.484267-31.3344-60.484267-69.905066 0-38.638933 26.965333-69.8368 60.484267-69.8368h325.632z"  horiz-adv-x="1092" />

    
    <glyph glyph-name="shuangjiantouxiala" unicode="&#58926;" d="M861.289514 215.050556l-312.939854-328.106878a48.188898 48.188898 0 0 0-36.541648-14.91104 48.188898 48.188898 0 0 0-36.605643 14.91104l-312.939855 328.170874a52.220638 52.220638 0 0 0-10.55932 60.412111c10.55932 20.478682 26.046323 35.325726 47.164964 35.325726h626.647659c21.11864 0 41.46933-14.91104 47.164964-35.325726a52.476622 52.476622 0 0 0-11.391267-60.412111zM861.289514 552.948804L548.34966 880.991686A48.188898 48.188898 0 0 1 511.808012 895.966722a48.188898 48.188898 0 0 1-36.605643-14.91104L162.262514 552.884808a52.220638 52.220638 0 0 1-10.55932-60.412111c10.55932-20.478682 26.046323-35.325726 47.164964-35.325726h626.647659c21.11864 0 41.46933 14.91104 47.164964 35.325726a52.476622 52.476622 0 0 1-11.391267 60.412111z"  horiz-adv-x="1024" />

    
    <glyph glyph-name="xiayi" unicode="&#58927;" d="M962.013867 245.077333l-121.514667-130.798933v667.648c0 38.980267-28.0576 66.218667-67.9936 66.218667-40.7552 0-66.901333-25.941333-66.901333-66.218667v-667.648l-121.378134 130.389333c-15.223467 15.018667-35.0208 23.893333-53.0432 23.893334-35.771733 0-67.106133-30.9248-67.106133-66.1504 0-19.797333 7.918933-34.952533 16.110933-48.469334l240.2304-259.959466c12.970667-12.765867 31.402667-19.8656 51.950934-19.8656 18.978133 0 34.952533 6.007467 53.248 20.0704l235.997866 260.9152a65.399467 65.399467 0 0 1 20.0704 47.3088c0 36.522667-32.3584 66.1504-72.157866 66.1504-16.657067 0-30.9248-7.099733-47.5136-23.483734zM77.755733 103.6288c-33.450667 0-60.552533-31.3344-60.552533-69.8368 0-38.570667 27.101867-69.905067 60.552533-69.905067h325.563734c33.450667 0 60.484267 31.3344 60.484266 69.905067 0 38.5024-26.965333 69.8368-60.484266 69.8368h-325.632z m0.341334 350.139733c-33.450667 0-60.552533-31.197867-60.552534-69.905066 0-38.5024 27.170133-69.8368 60.552534-69.8368h325.632c33.450667 0 60.484267 31.3344 60.484266 69.8368 0 38.7072-27.0336 69.905067-60.552533 69.905066H78.097067z m-2.389334 350.208c-33.450667 0-60.552533-31.3344-60.552533-69.8368 0-38.570667 27.170133-69.905067 60.552533-69.905066h325.563734c33.450667 0 60.484267 31.3344 60.484266 69.905066 0 38.638933-26.965333 69.8368-60.484266 69.8368h-325.632z"  horiz-adv-x="1092" />

    
    <glyph glyph-name="guidang" unicode="&#58928;" d="M185.344 592.964267h691.063467a35.976533 35.976533 0 1 1 0 72.021333H185.344a35.976533 35.976533 0 1 1 0-72.021333z m79.325867 173.056h532.48a35.976533 35.976533 0 1 1 0 71.953066h-532.48a35.976533 35.976533 0 1 1 0-71.953066z m672.085333-270.609067c39.594667 0 72.021333-32.3584 72.021333-71.953067v-431.9232c0-39.594667-32.426667-71.953067-72.021333-71.953066H124.996267c-39.594667 0-71.953067 32.3584-71.953067 71.953066V423.458133c0 39.594667 32.3584 71.953067 71.953067 71.953067h811.758933z m-570.026667-177.3568c-19.933867 0-68.744533-25.8048-68.744533-77.4144 0-51.541333 48.810667-77.346133 68.676267-77.346133h346.794666c19.8656 0 70.314667 26.077867 70.314667 77.346133s-50.449067 77.4144-70.314667 77.4144H366.592z"  horiz-adv-x="1092" />

    
    <glyph glyph-name="piliangbangdingshebei" unicode="&#58929;" d="M504.047177 829.293714c-13.604571 12.580571-44.251429 14.921143-63.195428-6.582857L217.91232 570.514286 74.55232 690.468571a44.617143 44.617143 0 0 1-65.828571-7.314285c-12.946286-19.017143-12.580571-50.176 8.557714-68.022857l170.203428-143.872a43.593143 43.593143 0 0 1 10.093715-6.290286c11.702857-9.728 31.744-13.604571 49.883428 7.021714l256.585143 292.059429c18.285714 20.772571 13.604571 52.662857 0 65.170285zM386.726034 310.857143H56.412891A54.272 54.272 0 0 1 2.140891 256.585143v-330.313143c0-29.988571 24.283429-54.272 54.272-54.272h330.313143c29.988571 0 54.272 24.283429 54.272 54.272V256.585143A54.272 54.272 0 0 1 386.726034 310.857143z m585.142857 585.142857H641.555749A54.272 54.272 0 0 1 587.283749 841.728v-330.313143c0-29.988571 24.283429-54.272 54.272-54.272h330.313142c29.988571 0 54.272 24.283429 54.272 54.272V841.728A54.272 54.272 0 0 1 971.868891 896z m0-585.142857H641.555749A54.272 54.272 0 0 1 587.283749 256.585143v-330.313143c0-29.988571 24.283429-54.272 54.272-54.272h330.313142c29.988571 0 54.272 24.283429 54.272 54.272V256.585143A54.272 54.272 0 0 1 971.868891 310.857143z"  horiz-adv-x="1026" />

    
    <glyph glyph-name="bangdingshebei" unicode="&#58930;" d="M358.4 369.371429c0 29.257143-29.257143 58.514286-73.142857 58.514285H190.171429c-36.571429 0-73.142857 36.571429-73.142858 73.142857V705.828571c0 36.571429 36.571429 73.142857 73.142858 73.142858h277.942857c43.885714 0 73.142857-36.571429 73.142857-73.142858V310.857143c0-43.885714 29.257143-73.142857 58.514286-73.142857s58.514286 29.257143 58.514285 73.142857V822.857143c0 43.885714-29.257143 73.142857-73.142857 73.142857H73.142857C29.257143 896 0 866.742857 0 822.857143v-438.857143c0-36.571429 29.257143-73.142857 73.142857-73.142857h212.114286c36.571429 0 73.142857 29.257143 73.142857 58.514286zM665.6 404.48c0-29.549714 36.571429-59.099429 73.142857-59.099429h95.085714c43.885714 0 73.142857-29.622857 73.142858-73.947428v-207.140572c0-44.397714-29.257143-73.947429-73.142858-73.947428H555.885714c-43.885714 0-73.142857 29.549714-73.142857 73.947428V456.411429C482.742857 500.736 453.485714 530.285714 424.228571 530.285714S365.714286 493.275429 365.714286 456.338286v-510.390857C365.714286-98.450286 394.971429-128 438.857143-128h512c43.885714 0 73.142857 29.549714 73.142857 73.947429V389.851429c0 44.324571-29.257143 73.874286-73.142857 73.874285h-212.114286c-36.571429 0-73.142857-29.549714-73.142857-59.099428z"  horiz-adv-x="1024" />

    
    <glyph glyph-name="jieshu" unicode="&#58931;" d="M793.646659 752.690239c31.167513-22.143654 58.87908-47.231262 83.070702-75.262824 24.255621-28.031562 44.991297-58.367088 62.335026-90.87858A458.168841 458.168841 0 0 0 991.97956 372.664177a448.63299 448.63299 0 0 0-36.863424-181.245168 473.720598 473.720598 0 0 0-99.710442-147.389697 473.976594 473.976594 0 0 0-147.389697-99.710442 448.696989 448.696989 0 0 0-181.245168-36.863424 446.07303 446.07303 0 0 0-180.093186 36.863424 480.120498 480.120498 0 0 0-147.965688 99.710442 462.520773 462.520773 0 0 0-99.710442 147.453696 454.136904 454.136904 0 0 0-36.351432 181.11717c0 36.735426 4.351932 72.766863 12.991797 108.030312a478.904517 478.904517 0 0 0 36.863424 100.734426c15.935751 31.807503 35.647443 61.631037 59.199075 89.278605a504.824112 504.824112 0 0 0 78.910767 74.750832c15.231762 11.071827 31.679505 15.231762 49.27923 12.479805 17.663724-2.751957 31.9995-11.391822 43.135326-25.983594a61.951032 61.951032 0 0 0 12.479805-48.767238 65.470977 65.470977 0 0 0-25.983594-43.647318A322.362963 322.362963 0 0 1 229.303477 522.22984a329.722848 329.722848 0 0 1-34.815456-149.501664c0-45.695286 8.703864-88.766613 25.983594-129.27798a333.43479 333.43479 0 0 1 177.021234-177.533226 319.803003 319.803003 0 0 1 129.27798-26.495586c45.695286 0 88.766613 8.831862 129.27798 26.495586a340.730676 340.730676 0 0 1 105.918345 71.614881 340.47468 340.47468 0 0 1 71.67888 105.918345 319.803003 319.803003 0 0 1 26.431587 129.27798 328.31487 328.31487 0 0 1-37.375416 153.149607 323.898939 323.898939 0 0 1-104.830362 118.910142 62.527023 62.527023 0 0 0-27.51957 42.559335c-3.19995 17.983719 0.511992 34.55946 10.87983 49.855221a63.615006 63.615006 0 0 0 42.559335 26.431587c18.047718 3.19995 34.623459-0.511992 49.91922-10.87983z m-266.87583-383.162013a62.975016 62.975016 0 0 0-46.143279 19.1997c-12.7998 12.7998-19.1997 28.223559-19.1997 46.207278V829.553038c0 17.91972 6.3999 33.535476 19.1997 46.71927C493.42735 889.392103 508.78711 895.984 526.70683 895.984a63.35901 63.35901 0 0 0 47.295261-19.711692c12.7998-13.183794 19.1997-28.79955 19.1997-46.71927v-394.617834c0-17.91972-6.3999-33.407478-19.1997-46.207278-12.7998-12.7998-28.607553-19.1997-47.295261-19.1997z"  horiz-adv-x="1024" />

    
    <glyph glyph-name="dianleipeizhi" unicode="&#58932;" d="M845.119792 485.504257c3.967998 0 7.359995-0.576 10.751993-1.152a388.991757 388.991757 0 0 1-142.527911 184.127885l-15.35999 10.367994-5.119997-17.919989a194.559878 194.559878 0 0 0-19.263988-46.335971l-5.695996-10.367994 9.599994-6.975995a309.951806 309.951806 0 0 0 105.663934-142.399911l7.999995 8.063995c14.719991 14.463991 33.471979 22.591986 53.951966 22.591986z m-427.647733-434.239729c-21.759986 5.887996-42.879973 14.079991-63.10396 24.319985l-10.239994 5.247996-6.783996-9.279994c-10.239994-13.887991-21.567987-26.623983-34.623978-37.119977l-14.719991-12.095992 16.38399-9.279994c35.199978-20.223987 72.703955-34.751978 112.511929-42.879973v78.78395c0.512 1.151999 0.512 1.727999 0.576 2.303999zM176.64021 388.800317l15.87199-0.576 1.727999 11.583993a307.327808 307.327808 0 0 0 128.895919 203.263873L332.800112 609.920179l-5.631996 10.431993a203.327873 203.327873 0 0 0-17.663989 46.911971l-4.479998 17.919989-15.35999-9.855994a387.135758 387.135758 0 0 1-174.911891-277.887826l-2.303998-19.071988 18.751988 4.607997c14.719991 4.031997 30.079981 5.759996 45.439972 5.759996zM499.840008 896C403.200068 896 324.800117 816.64005 324.800117 720.00011c0-94.975941 76.671952-173.695891 170.943893-175.99989h3.967998a175.48789 175.48789 0 0 1 174.97589 175.99989C674.751898 817.280049 596.351947 896 499.776008 896zM174.848211 365.056332C78.400271 365.056332 0.00032 285.760381 0.00032 189.056442c0-94.911941 77.247952-173.695891 170.943893-175.99989h3.967998a175.48789 175.48789 0 0 1 174.91189 175.99989c0 97.279939-78.335951 175.99989-174.91189 175.99989z m839.999475-63.103961l-140.799912 143.615911a30.719981 30.719981 0 0 1-21.631987 9.279994 30.719981 30.719981 0 0 1-21.567986-9.279994l-352.12778-358.399776c-5.695996-5.759996-7.423995-12.159992-9.087995-22.015987l-39.167975-161.919899c0-8.319995 3.199998-16.25599 8.959994-22.079986 5.759996-5.887996 13.567992-9.215994 21.759987-9.151994l179.391888 20.095987a30.719981 30.719981 0 0 1 21.567986 9.215995l171.903893 175.23189 180.799887 180.863887A31.93598 31.93598 0 0 1 1023.99968 279.424385a33.279979 33.279979 0 0 1-9.087994 22.527986z m-180.991887-138.239913a30.719981 30.719981 0 0 1-4.159998-3.583998L629.247927-45.439412l-137.407914-21.183986 38.591975 117.887926 320.8958 328.895794 98.815938-99.583937-116.223927-116.927927z"  horiz-adv-x="1024" />

    
    <glyph glyph-name="zhexianleipeizhi" unicode="&#58933;" d="M256 128h55.36v-55.36H256zM836.672 520.768l-148.992 165.632-350.592-346.624v-152.96h153.536zM1024 675.456L873.28 842.496 743.04 715.84l155.328-154.368zM317.76-33.92L40.64 320 0 268.16l293.952-375.424 0.576 0.704v-0.64H1024V-33.92z"  horiz-adv-x="1024" />

    
    <glyph glyph-name="duobianxingpeizhi" unicode="&#58934;" d="M512-128l-512 256V640l512 256 512-256v-512l-512-256z m441.152 325.376a51.328 51.328 0 0 1-6.656 4.416 54.848 54.848 0 0 0-36.928 53.12c0 12.8 4.096 24.384 12.16 34.56 8.128 10.048 17.792 17.152 29.184 21.248a20.864 20.864 0 0 1 8.64 6.848c2.752 3.52 3.712 8.448 3.008 14.72a132.736 132.736 0 0 1-8.576 31.744 65.6 65.6 0 0 1-14.592 23.552 17.088 17.088 0 0 1-10.752 4.928 16.768 16.768 0 0 1-10.752-2.176 71.68 71.68 0 0 0-35.904-6.4 49.664 49.664 0 0 0-32.64 14.72 55.424 55.424 0 0 0-16 30.912 58.88 58.88 0 0 0 4.48 33.728 33.664 33.664 0 0 1 2.176 7.488 12.608 12.608 0 0 1-1.664 9.6 53.312 53.312 0 0 1-11.84 13.312 67.456 67.456 0 0 1-16.32 9.984 103.168 103.168 0 0 1-17.92 6.08 71.168 71.168 0 0 1-16.832 2.176c-3.392 0-6.592-1.536-9.664-4.672a35.712 35.712 0 0 1-6.912-9.088 57.728 57.728 0 0 0-20.992-27.392 56.832 56.832 0 0 0-34.24-10.816 49.792 49.792 0 0 0-32.64 11.392 66.368 66.368 0 0 0-19.84 26.24 28.416 28.416 0 0 1-5.76 9.728A14.4 14.4 0 0 1 634.048 512c-3.648 0-8.64-0.64-14.912-1.92-6.208-1.344-12.672-3.264-19.328-5.824-6.464-2.56-12.672-5.76-18.496-9.728a31.36 31.36 0 0 1-11.84-13.504 12.288 12.288 0 0 1-0.832-7.744 57.664 57.664 0 0 1 1.92-7.744c0.384-2.24 0.832-5.888 1.408-11.072a89.536 89.536 0 0 0-3.84-36.224 39.936 39.936 0 0 0-9.664-16.32 56.128 56.128 0 0 0-31.744-15.744 66.56 66.56 0 0 0-34.56 4.16 48.896 48.896 0 0 1-9.088 2.24 12.864 12.864 0 0 1-8.576-2.24 34.304 34.304 0 0 1-10.24-10.24 96 96 0 0 1-8.256-15.168 109.056 109.056 0 0 1-5.76-17.152A67.712 67.712 0 0 1 448 331.712c0-4.352 1.152-8.704 3.328-12.992 2.24-4.224 4.992-6.912 8.192-7.936 11.008-4.48 20.992-11.392 29.824-20.992 8.832-9.6 13.248-20.864 13.248-33.728a50.496 50.496 0 0 0-13.248-34.048 78.08 78.08 0 0 0-29.824-21.824c-6.272-2.24-9.92-7.424-11.008-15.488a46.4 46.4 0 0 1 1.088-16.896 110.272 110.272 0 0 1 15.744-37.632 24.384 24.384 0 0 1 11.328-10.176c5.12-2.176 10.304-2.56 15.488-1.088 8.064 2.56 16 4.032 23.68 4.416 6.656 0.384 13.632-0.256 20.992-1.92a35.712 35.712 0 0 0 18.752-10.816 50.112 50.112 0 0 0 14.08-30.08 55.68 55.68 0 0 0-4.672-29.12 33.408 33.408 0 0 1-4.16-14.656 17.024 17.024 0 0 1 3.072-9.088c2.56-3.648 6.4-7.36 11.584-11.008 5.12-3.712 10.944-6.976 17.408-9.728 6.272-2.688 12.8-4.992 19.328-6.912 6.4-1.92 12.224-2.752 17.408-2.752 4.48 0 8.448 0.96 12.096 3.008a18.816 18.816 0 0 1 8.32 9.664 67.2 67.2 0 0 0 21.248 29.056 52.16 52.16 0 0 0 33.92 12.416c12.928 0 24.256-4.096 33.984-12.416 9.728-8.32 16.64-18.112 20.672-29.568h0.576c1.152-2.944 3.2-5.76 6.08-8.32 3.008-2.56 6.08-3.84 9.344-3.84 4.864 0 10.368 0.704 16.64 2.176 6.272 1.472 12.288 3.456 17.92 6.08a119.04 119.04 0 0 1 15.744 8.576 41.728 41.728 0 0 1 10.496 9.152 21.12 21.12 0 0 1 1.664 22.08 62.272 62.272 0 0 0-4.992 33.728 54.4 54.4 0 0 0 15.488 31.552 33.088 33.088 0 0 0 14.656 9.408c5.632 1.792 11.328 3.008 17.024 3.584 5.76 0.512 11.328 0.32 16.896-0.64 5.504-0.896 10.112-1.92 13.76-3.008a32 32 0 0 1 11.072-2.176 26.496 26.496 0 0 1 11.584 3.328 33.856 33.856 0 0 1 12.16 11.072 92.992 92.992 0 0 1 14.848 36.48 46.528 46.528 0 0 1 0.64 16 24.768 24.768 0 0 1-8.32 12.736z m-137.472 11.328a124.288 124.288 0 0 0-25.664-38.4 118.4 118.4 0 0 0-85.312-35.392c-16.512 0-32.064 3.2-46.592 9.408a119.168 119.168 0 0 0-38.144 25.984 125.248 125.248 0 0 0-25.6 38.4 117.12 117.12 0 0 0-9.472 46.72c0 16.576 3.2 32.192 9.408 46.72a121.088 121.088 0 0 0 63.744 63.872c14.528 6.272 30.08 9.408 46.72 9.408a120.064 120.064 0 0 0 110.976-73.28c6.208-14.528 9.344-30.08 9.344-46.72 0-16.512-3.136-32.128-9.408-46.72z"  horiz-adv-x="1024" />

    
    <glyph glyph-name="ditupeizhi" unicode="&#58935;" d="M979.2 106.688a57.664 57.664 0 0 1-7.488 4.992 63.616 63.616 0 0 0-30.08 22.656 61.696 61.696 0 0 0-11.456 37.056c0 14.464 4.608 27.456 13.696 38.784a72.96 72.96 0 0 0 32.832 23.936 23.424 23.424 0 0 1 9.664 7.808c3.072 3.904 4.224 9.408 3.392 16.448a149.248 149.248 0 0 1-9.6 35.712 73.728 73.728 0 0 1-16.448 26.432 19.2 19.2 0 0 1-12.096 5.632 18.816 18.816 0 0 1-12.096-2.56c-12.416-5.76-25.856-8.128-40.32-7.04a55.872 55.872 0 0 0-36.672 16.448 62.336 62.336 0 0 0-17.984 34.816 66.24 66.24 0 0 0 4.992 37.888 37.76 37.76 0 0 1 2.432 8.384 14.144 14.144 0 0 1-1.856 10.88 59.968 59.968 0 0 1-13.312 14.912 75.84 75.84 0 0 1-18.368 11.2 115.968 115.968 0 0 1-20.16 6.848 80 80 0 0 1-18.944 2.56c-3.776 0-7.36-1.792-10.88-5.376a40.192 40.192 0 0 1-7.68-10.24 64.96 64.96 0 0 0-23.68-30.72 63.936 63.936 0 0 0-38.464-12.16 56 56 0 0 0-36.608 12.8 74.624 74.624 0 0 0-22.4 29.44 32 32 0 0 1-6.4 10.944 16.128 16.128 0 0 1-12.8 5.312c-4.096 0-9.728-0.768-16.768-2.24-7.04-1.472-14.272-3.648-21.76-6.528a105.408 105.408 0 0 1-20.736-10.88 35.2 35.2 0 0 1-13.376-15.168 13.824 13.824 0 0 1-0.896-8.768c0.64-3.264 1.28-6.208 2.176-8.704 0.384-2.496 0.96-6.592 1.536-12.416a100.672 100.672 0 0 0-4.352-40.704 44.928 44.928 0 0 0-10.88-18.368 63.104 63.104 0 0 0-35.648-17.664c-13.44-1.92-26.368-0.384-38.784 4.608a55.04 55.04 0 0 1-10.24 2.56 14.464 14.464 0 0 1-9.664-2.56 38.528 38.528 0 0 1-11.52-11.456 107.968 107.968 0 0 1-9.28-17.088 122.624 122.624 0 0 1-6.528-19.328 76.16 76.16 0 0 1-2.432-18.048c0-4.928 1.28-9.792 3.712-14.592 2.496-4.736 5.568-7.68 9.216-8.96 12.352-4.928 23.552-12.8 33.472-23.552a54.208 54.208 0 0 0 14.912-37.952c0-14.08-4.928-26.88-14.912-38.272-9.92-11.392-21.056-19.584-33.472-24.576-7.04-2.432-11.2-8.256-12.416-17.344a52.224 52.224 0 0 1 1.28-19.008 123.968 123.968 0 0 1 17.664-42.24 27.456 27.456 0 0 1 12.736-11.52 25.472 25.472 0 0 1 17.408-1.28c9.088 2.944 17.984 4.608 26.688 5.056a85.12 85.12 0 0 0 23.616-2.24c8.256-1.856 15.296-5.824 21.056-12.096a56.32 56.32 0 0 0 15.872-33.92 62.592 62.592 0 0 0-5.312-32.64 37.568 37.568 0 0 1-4.672-16.448 19.2 19.2 0 0 1 3.456-10.24 54.4 54.4 0 0 1 12.992-12.416c5.76-4.16 12.352-7.808 19.584-10.88 7.04-3.072 14.336-5.632 21.76-7.808a70.4 70.4 0 0 1 19.52-3.136c4.992 0 9.6 1.152 13.632 3.392a21.184 21.184 0 0 1 9.28 10.88 75.52 75.52 0 0 0 23.936 32.64 58.624 58.624 0 0 0 38.144 14.08c14.528 0 27.264-4.672 38.208-14.08a76.8 76.8 0 0 0 23.296-33.216h0.64c1.28-3.264 3.52-6.4 6.784-9.344a15.936 15.936 0 0 1 10.56-4.352c5.44 0 11.584 0.832 18.624 2.496 7.04 1.664 13.824 3.904 20.224 6.848 6.4 2.88 12.288 6.08 17.664 9.6a46.912 46.912 0 0 1 11.84 10.24 23.68 23.68 0 0 1 1.856 24.96 70.016 70.016 0 0 0-5.632 37.888 61.184 61.184 0 0 0 17.472 35.456 37.248 37.248 0 0 0 16.384 10.56c6.4 2.048 12.8 3.392 19.2 4.032 6.4 0.576 12.736 0.384 18.944-0.64 6.208-1.088 11.456-2.176 15.552-3.456a35.968 35.968 0 0 1 12.352-2.432c3.776 0 8.128 1.216 13.056 3.712a38.08 38.08 0 0 1 13.696 12.48 104.576 104.576 0 0 1 16.704 41.024 52.288 52.288 0 0 1 0.64 17.984 27.84 27.84 0 0 1-9.28 14.272z m-154.56 12.8c-7.04-16.384-16.64-30.72-28.864-43.2a132.608 132.608 0 0 0-43.2-29.248 133.12 133.12 0 0 0-52.736-10.56 131.2 131.2 0 0 0-52.416 10.56 133.952 133.952 0 0 0-42.816 29.248 140.8 140.8 0 0 0-28.864 43.2 131.712 131.712 0 0 0-10.56 52.48c0 18.624 3.52 36.16 10.56 52.48a136.128 136.128 0 0 0 71.68 71.872c16.32 7.04 33.856 10.56 52.48 10.56a135.04 135.04 0 0 0 124.8-82.432c6.976-16.32 10.496-33.792 10.496-52.48 0-18.56-3.52-36.096-10.56-52.48zM416.96 160.32a59.968 59.968 0 0 1 1.92 6.976 47.168 47.168 0 0 1 0.32 5.568c0 1.792 0 3.584-0.192 5.376a61.184 61.184 0 0 1-2.624 9.28 117.12 117.12 0 0 1-7.296 13.632c-3.328 5.76-6.848 11.328-10.048 17.088-8.32 14.848-14.976 30.912-15.552 48.192a86.208 86.208 0 0 0 14.848 50.048c18.88 26.88 48.128 42.176 80.192 47.104a33.472 33.472 0 0 0 18.624-2.112c2.816 1.408 5.504 3.008 8.128 4.736a58.368 58.368 0 0 1 2.56 2.432c0.768 1.28 2.368 3.52 2.88 4.672a77.12 77.12 0 0 1 4.48 21.632c0.512 5.312 1.152 10.624 1.856 16-0.256 6.976 0.192 14.016 1.6 20.992a65.92 65.92 0 0 0 31.808 43.2 22.592 22.592 0 0 0 15.808 12.16c7.232 1.28 14.592 2.368 21.888 3.008a51.2 51.2 0 0 0 59.264-12.032c4.48-4.928 8.32-10.368 12.032-15.936 6.912-4.352 12.992-9.408 18.88-14.72 1.728-1.024 3.392-1.92 5.12-2.752l2.496-1.152c1.6-0.64 3.2-1.152 4.864-1.664 1.728-0.512 7.68-1.408 7.36-1.536h3.584a41.344 41.344 0 0 1 6.528 2.176c3.968 2.176 6.592 3.84 9.152 5.632l2.304 1.728c4.672 3.968 7.552 6.4 10.368 9.024 10.368 9.792 22.4 19.008 35.52 24.64 16.896 7.232 33.28 11.072 51.712 8.064a55.04 55.04 0 0 0 20.352-7.68V719.36L659.456 890.304H109.888C52.096 890.304 5.184 847.68 5.184 795.136L0 129.216c0-52.608 46.848-95.232 104.704-95.232H382.72a157.312 157.312 0 0 0-6.848 43.84c0 18.56 3.648 40.192 14.976 55.488 5.184 7.04 10.624 11.968 17.28 17.28a53.312 53.312 0 0 1 6.528 5.824c0.832 1.28 1.664 2.56 2.304 3.904z m57.6 597.312a39.168 39.168 0 1 0-78.4-0.128 39.168 39.168 0 0 0 78.4 0.128z m-363.712-39.296a39.168 39.168 0 1 0 0.128 78.4 39.168 39.168 0 0 0-0.128-78.4z m162.304 0A39.168 39.168 0 1 0 273.28 796.8a39.168 39.168 0 0 0-0.128-78.4z"  horiz-adv-x="1024" />

    
    <glyph glyph-name="xuanzekuang" unicode="&#58936;" d="M36.571429 859.428571m146.285714 0l658.285714 0q146.285714 0 146.285714-146.285714l0-658.285714q0-146.285714-146.285714-146.285714l-658.285714 0q-146.285714 0-146.285714 146.285714l0 658.285714q0 146.285714 146.285714 146.285714Z"  horiz-adv-x="1024" />

    
    <glyph glyph-name="xuankuangxuanzhong" unicode="&#58937;" d="M36.571429 859.428571m146.285714 0l658.285714 0q146.285714 0 146.285714-146.285714l0-658.285714q0-146.285714-146.285714-146.285714l-658.285714 0q-146.285714 0-146.285714 146.285714l0 658.285714q0 146.285714 146.285714 146.285714ZM862.354286 573.220571l-400.457143-464.018285a48.859429 48.859429 0 0 0-37.010286-17.773715 48.859429 48.859429 0 0 0-36.937143 17.773715L161.572571 371.492571A65.243429 65.243429 0 0 0 146.285714 414.281143c0 33.426286 23.405714 60.489143 52.224 60.489143 14.409143 0 27.501714-6.802286 36.937143-17.773715l189.44-219.428571 363.666286 421.302857A49.005714 49.005714 0 0 0 825.490286 676.571429c28.818286 0 52.224-27.062857 52.224-60.489143 0-16.749714-5.851429-31.890286-15.36-42.861715z"  horiz-adv-x="1024" />

    
    <glyph glyph-name="cengji" unicode="&#58938;" d="M914.375111 896H109.795556A109.795556 109.795556 0 0 1 0 786.261333V-18.204444C0-78.904889 49.095111-128 109.738667-128H914.204444A109.681778 109.681778 0 0 1 1024-18.261333V786.204444A109.624889 109.624889 0 0 1 914.375111 896z m-427.235555-832L128 204.174222l123.164444 49.834667 235.975112-91.989333 231.139555 93.980444 113.720889-51.768889-344.860444-140.174222v-0.056889z m0 192L128 396.174222l123.164444 49.834667 235.975112-91.989333 231.139555 93.980444 113.720889-51.768889-344.860444-140.174222v-0.056889z m0 128L128 538.168889 500.622222 704.056889l331.377778-165.774222L487.139556 384z"  horiz-adv-x="1024" />

    
    <glyph glyph-name="jichushuxing" unicode="&#58939;" d="M59.099429 344.649143h354.450285c32.621714 0 59.099429-26.477714 59.099429-59.099429v-354.450285a59.099429 59.099429 0 0 0-59.099429-59.099429H59.099429A59.099429 59.099429 0 0 0 0-68.900571V285.549714c0 32.621714 26.477714 59.099429 59.099429 59.099429z m551.350857 0h354.450285c32.621714 0 59.099429-26.477714 59.099429-59.099429v-354.450285a59.099429 59.099429 0 0 0-59.099429-59.099429H610.450286a59.099429 59.099429 0 0 0-59.099429 59.099429V285.549714c0 32.621714 26.477714 59.099429 59.099429 59.099429z m66.706285 430.957714v-236.324571h236.251429v236.251428h-236.251429zM610.450286 896h354.450285c32.621714 0 59.099429-26.477714 59.099429-59.099429v-354.450285a59.099429 59.099429 0 0 0-59.099429-59.099429H610.450286a59.099429 59.099429 0 0 0-59.099429 59.099429V836.900571C551.350857 869.522286 577.828571 896 610.450286 896zM59.099429 896h354.450285c32.621714 0 59.099429-26.477714 59.099429-59.099429v-354.450285a59.099429 59.099429 0 0 0-59.099429-59.099429H59.099429A59.099429 59.099429 0 0 0 0 482.450286V836.900571C0 869.522286 26.477714 896 59.099429 896z"  horiz-adv-x="1024" />

    
    <glyph glyph-name="liebiao" unicode="&#58940;" d="M513.422222 384m-512 0a512 512 0 1 1 1024 0 512 512 0 1 1-1024 0ZM750.819556 560.924444H407.267556c-10.126222 2.218667-17.351111 16.497778-16.554667 32.597334-0.796444 16.042667 6.428444 30.321778 16.554667 32.540444h343.608888c10.183111-1.991111 17.635556-16.327111 16.782223-32.540444 0.796444-16.270222-6.599111-30.606222-16.839111-32.597334zM263.224889 618.552889a42.496 42.496 0 0 1 0-42.837333 43.349333 43.349333 0 0 1 74.979555 0 42.496 42.496 0 0 1 0 42.837333 43.349333 43.349333 0 0 1-74.979555 0z m506.140444-215.665778c0.796444-16.213333-6.599111-30.606222-16.839111-32.597333H408.974222c-10.126222 2.275556-17.351111 16.497778-16.554666 32.597333-0.796444 16.042667 6.428444 30.321778 16.554666 32.540445h343.552c10.24-1.991111 17.635556-16.327111 16.839111-32.540445zM300.657778 445.724444a43.349333 43.349333 0 0 1-37.489778-21.447111 42.496 42.496 0 0 1 0-42.837333 43.349333 43.349333 0 0 1 74.979556 0 42.496 42.496 0 0 1 0 42.837333 43.349333 43.349333 0 0 1-37.546667 21.447111z m451.299555-257.137777H408.462222c-9.614222 3.470222-16.384 17.009778-16.384 32.540444 0 15.587556 6.826667 29.070222 16.384 32.597333h343.552c10.24-2.048 17.635556-16.384 16.839111-32.597333 0.796444-16.213333-6.599111-30.549333-16.839111-32.540444z m-488.789333 54.897777a42.496 42.496 0 0 1 0-42.837333 43.349333 43.349333 0 0 1 74.979556 0 42.496 42.496 0 0 1 0 42.837333 43.349333 43.349333 0 0 1-74.979556 0z"  horiz-adv-x="1025" />

    
    <glyph glyph-name="shujuweihu" unicode="&#58941;" d="M982.891637 854.890906c26.697067-26.697067 40.374742-59.757544 41.106169-99.254574V12.433884c-0.731426-39.49703-14.409102-72.557507-41.106169-99.254573A138.459033 138.459033 0 0 0 883.563921-128H140.434616c-39.49703 0.731426-72.63065 14.409102-99.254574 41.106168A138.459033 138.459033 0 0 0 0.000731 12.433884V755.56319C0.732158 795.133362 14.409833 828.193839 41.1069 854.890906A138.459033 138.459033 0 0 0 140.434616 895.997074H883.563921c39.49703-0.804569 72.557507-14.482244 99.254574-41.106168zM350.792872 320.364433a64.511816 64.511816 0 0 1-15.871955 44.982729c-10.532541 11.702824-26.404496 17.554236-47.689006 17.554235-21.211368 0-37.814749-5.851412-49.883286-17.554235-11.995394-11.702824-16.237668-26.697067-12.580536-44.982729v-161.206396c0-17.554236 5.997697-32.32905 18.139377-44.397588 12.068537-12.14168 27.06278-18.139377 44.982729-18.139376a59.245545 59.245545 0 0 1 44.397587 18.139376 65.316385 65.316385 0 0 1 18.578233 44.397588V320.437576z m217.08738 288.182034a60.269542 60.269542 0 0 1-18.139377 44.47073 60.927826 60.927826 0 0 1-44.982729 18.139377 59.245545 59.245545 0 0 1-44.397587-18.139377 65.316385 65.316385 0 0 1-18.578233-44.397587v-449.461573a65.828383 65.828383 0 0 1 18.578233-44.397588c11.702824-12.068537 26.477639-18.139377 44.397587-18.139376s32.914192 5.997697 44.982729 18.139376a60.269542 60.269542 0 0 1 18.139377 44.397588V608.692752z m224.767358-218.038234a59.538116 59.538116 0 0 1-21.942795 44.982728 72.63065 72.63065 0 0 1-48.274148 17.554236c-18.285662 0-32.841049-5.851412-43.812446-17.554236-10.971397-11.702824-14.994243-26.697067-11.995394-44.982728v-231.350196c0-17.554236 5.997697-32.32905 18.066234-44.397588 12.14168-12.14168 27.06278-18.139377 45.055871-18.139376a59.245545 59.245545 0 0 1 44.397588 18.139376 65.316385 65.316385 0 0 1 18.578232 44.397588V390.581375z"  horiz-adv-x="1024" />

    
    <glyph glyph-name="xiangqingbiaoti" unicode="&#58942;" d="M537.6 896C241.408 896 0 666.112 0 384s241.408-512 537.6-512S1075.2 101.888 1075.2 384 833.792 896 537.6 896z m-5.9392-814.08c-22.016-11.776-40.2944-17.92-54.272-17.92-12.3904 0-22.016 3.584-29.5936 10.752-6.9632 7.168-10.752 17.408-10.752 30.208 0 40.96 26.368 141.312 79.616 301.056 2.6624 7.68 3.7376 14.336 3.7376 19.968 0 6.656-3.2256 9.728-9.6768 9.728-6.9632 0-15.0528-2.56-24.2176-7.68-9.1136-5.12-29.0304-22.016-60.2112-50.176l-23.0912 16.896c35.4816 36.352 67.2256 61.952 96.256 77.312 28.9792 15.36 53.76 23.04 74.1376 23.04 11.3152 0 19.9168-2.048 25.856-6.656 5.888-4.608 9.1136-10.752 9.1136-18.944 0-9.728-11.264-50.176-34.4064-121.344-37.12-116.736-55.9104-186.88-55.9104-210.944 0-4.608 1.0752-8.704 3.7376-11.776 2.7136-3.072 5.376-4.608 8.0896-4.608 11.264 0 40.2944 20.48 86.528 60.928l20.48-18.944c-47.872-41.984-82.7904-69.12-105.4208-80.896zM655.872 629.76c-10.752-11.264-22.5792-16.384-36.0448-16.384a36.5568 36.5568 0 0 0-26.3168 10.24 36.1472 36.1472 0 0 0-10.752 27.136c0 14.848 4.864 27.136 15.616 37.888 10.1888 10.24 22.528 15.36 36.5056 15.36 10.752 0 19.9168-3.584 26.88-10.24 7.0144-6.656 10.752-15.36 10.752-26.112-0.512-13.824-5.888-26.624-16.64-37.888z"  horiz-adv-x="1075" />

    
    <glyph glyph-name="zidingyishuxing" unicode="&#58943;" d="M54.866651 327.094857h329.142858c30.281143 0 54.857143-25.453714 54.857142-56.905143v-341.284571c0-31.451429-24.576-56.905143-54.857142-56.905143H54.866651a55.881143 55.881143 0 0 0-54.857142 56.905143V270.189714c0 31.451429 24.576 56.905143 54.857142 56.905143zM54.866651 896h329.142858c30.281143 0 54.857143-25.453714 54.857142-56.905143v-341.284571c0-31.451429-24.576-56.905143-54.857142-56.905143H54.866651A55.881143 55.881143 0 0 0 0.009509 497.810286V839.094857C0.009509 870.546286 24.585509 896 54.866651 896zM512.009509 896m73.142857 0l365.714285 0q73.142857 0 73.142858-73.142857l0-73.142857q0-73.142857-73.142858-73.142857l-365.714285 0q-73.142857 0-73.142857 73.142857l0 73.142857q0 73.142857 73.142857 73.142857ZM512.009509 457.142857m73.142857 0l365.714285 0q73.142857 0 73.142858-73.142857l0-73.142857q0-73.142857-73.142858-73.142857l-365.714285 0q-73.142857 0-73.142857 73.142857l0 73.142857q0 73.142857 73.142857 73.142857ZM512.009509 91.428571m73.142857 0l365.714285 0q73.142857 0 73.142858-73.142857l0-73.142857q0-73.142857-73.142858-73.142857l-365.714285 0q-73.142857 0-73.142857 73.142857l0 73.142857q0 73.142857 73.142857 73.142857Z"  horiz-adv-x="1024" />

    
    <glyph glyph-name="cejux" unicode="&#58944;" d="M51.2 0h920.064v-76.544H51.2V0z m0 230.3488L665.6512 844.8l54.4768-54.4256L105.6256 175.872 51.2 230.4z m108.8512 0.3584l53.6576 53.6576 162.6112-162.6112-53.6576-53.6576-162.6112 162.6112z m107.8784 107.8784L321.536 392.192l108.544-108.544-53.6064-53.6576-108.5952 108.544zM376.32 446.976L430.592 501.248l108.544-108.6464-54.1696-54.1696L376.32 446.976z m108.1344 108.6976l54.272 54.272 108.544-108.6464-54.2208-54.2208-108.544 108.5952z m108.6976 108.1856l54.272 54.2208 181.4016-181.4528-54.272-54.1696-181.4016 181.4016z"  horiz-adv-x="1024" />

    
    <glyph glyph-name="cheliangx" unicode="&#58945;" d="M441.571556 745.130667A88.32 88.32 0 0 1 353.28 656.782222v-73.585778H195.043556C87.381333 583.082667 0.113778 467.399111 0 359.736889v-202.382222c0-16.270222 13.169778-29.44 29.44-29.44h81.322667c0-2.446222-0.369778-4.864-0.369778-7.395556a125.127111 125.127111 0 0 1 250.225778 0v7.395556h302.478222v-7.395556a125.127111 125.127111 0 1 1 250.254222 0v7.395556h22.072889A88.32 88.32 0 0 1 1023.715556 216.177778V656.810667a88.32 88.32 0 0 1-89.059556 88.32H441.571556zM235.52 54.300444a66.247111 66.247111 0 1 0 0 132.494223 66.247111 66.247111 0 0 0 0-132.494223z m117.76 132.494223h-11.776a125.127111 125.127111 0 0 1-211.968 0H58.88v117.76h294.4v-117.76z m0 176.64H58.88c1.991111 73.671111 62.236444 160.796444 135.936 160.910222h158.435556v-160.938667z m434.204444-309.134223a66.247111 66.247111 0 1 0 0 132.494223 66.247111 66.247111 0 0 0 0-132.494223z m176.64 161.905778a29.44 29.44 0 0 0-29.44-29.411555h-41.216a125.127111 125.127111 0 0 1-211.968 0h-269.368888V656.782222c0 16.270222 13.198222 29.44 29.44 29.44H934.684444c16.270222 0 29.44-13.169778 29.44-29.44V216.177778z"  horiz-adv-x="1024" />

    
    <glyph glyph-name="dakaix" unicode="&#58946;" d="M958.3616 106.9568c-29.0304-28.672-68.096-32.5632-117.1968-11.776l-320.2048 336.64a25.6 25.6 0 0 1-37.0688 0L163.6352 95.232c-47.104-17.6128-84.8384-13.6704-113.152 11.776-28.3136 25.4464-34.048 67.1744-17.2032 125.184l450.56 473.7024a25.6 25.6 0 0 0 37.12 0l450.56-473.7024c20.224-54.784 15.872-96.5632-13.1584-125.184z"  horiz-adv-x="1024" />

    
    <glyph glyph-name="fanweix" unicode="&#58947;" d="M853.3504 298.6496a108.8 108.8 0 1 1-0.8704-217.6 108.8 108.8 0 0 1 0.8704 217.6zM512 635.2896a109.2096 109.2096 0 1 1-108.3904 108.8c0-59.904 48.4864-108.544 108.3904-108.8z m361.8304-270.4896c23.6544-2.9184 46.4896-10.752 66.9696-23.04v4.7104a432.2304 432.2304 0 0 1-256 393.7792 170.6496 170.6496 0 0 0-14.9504-67.3792 364.3904 364.3904 0 0 0 203.9808-308.0704zM280.7296 191.1296a108.3904 108.3904 0 1 1-110.08-108.8 108.8 108.8 0 0 1 110.08 108.8z m-130.56 173.6704a365.2096 365.2096 0 0 0 202.24 308.48 167.2704 167.2704 0 0 0-14.8992 66.9696 432.2304 432.2304 0 0 1-256-393.7792 17.5104 17.5104 0 0 1 3.84-5.12c19.712 12.288 41.7792 20.2752 64.8192 23.4496z m361.8304-384a359.2704 359.2704 0 0 0-224 78.4896 172.8 172.8 0 0 0-61.44-35.3792 426.6496 426.6496 0 0 1 570.88 0 172.8 172.8 0 0 0-61.44 35.3792A359.2704 359.2704 0 0 0 512-18.3296v-0.8704z"  horiz-adv-x="1024" />

    
    <glyph glyph-name="ersanweiqiehuanx" unicode="&#58948;" d="M809.6256 630.3744h54.3744c60.1088 0 108.8-48.64 108.8-108.8v-489.5744A108.8 108.8 0 0 0 864-76.8H374.3744a108.8 108.8 0 0 0-108.8 108.8v54.4256H211.2A108.8 108.8 0 0 0 102.4 195.1744V684.8512C102.4 744.9088 151.0912 793.6 211.2 793.6h489.6256c60.0576 0 108.7488-48.6912 108.7488-108.8v-54.4256zM819.2 537.6v-358.4a102.4 102.4 0 0 0-102.4-102.4H358.4v-51.2a51.2 51.2 0 0 1 51.2-51.2h460.8a51.2 51.2 0 0 1 51.2 51.2V486.4a51.2 51.2 0 0 1-51.2 51.2h-51.2z"  horiz-adv-x="1024" />

    
    <glyph glyph-name="lukuangx" unicode="&#58949;" d="M426.6496 599.7056c0-46.2848 39.0656-85.2992 85.3504-85.2992s85.3504 39.0144 85.3504 85.2992c0 46.2848-39.0656 85.3504-85.3504 85.3504s-85.3504-39.0656-85.3504-85.3504z m0-224.256c0-46.2848 39.0656-85.2992 85.3504-85.2992s85.3504 39.0144 85.3504 85.2992c0 46.2848-39.0656 85.3504-85.3504 85.3504s-85.3504-39.0656-85.3504-85.3504z m0-224.256c0-46.2848 39.0656-85.2992 85.3504-85.2992s85.3504 39.0144 85.3504 85.2992c0 46.2848-39.0656 85.3504-85.3504 85.3504s-85.3504-39.0656-85.3504-85.3504zM256 568.32v-387.7376c0-159.744 114.432-289.9456 255.3856-290.816h1.792c140.8 1.024 254.5664 130.816 254.8224 290.816V568.32c0 160.4096-114.8416 290.816-256 290.816S256 728.7296 256 568.32z m426.6496 0v-387.7376c-0.1024-106.8544-76.1856-193.4848-170.24-193.8944-94.3104 0.2048-171.0592 87.1424-171.0592 193.8944V568.32c0 106.9056 76.544 193.8944 170.6496 193.8944s170.6496-86.9888 170.6496-193.8944z"  horiz-adv-x="1024" />

    
    <glyph glyph-name="jianzhux" unicode="&#58950;" d="M992-10.979556h-64V530.176c0 84.195556-51.2 120.263111-83.2 126.293333l-204.8 60.131556V782.734222c0 12.032-6.4 18.033778-12.8 24.064-6.4 6.001778-19.2 6.001778-25.6 6.001778L172.8 698.567111s-76.8-18.062222-76.8-114.261333v-595.285334h-64C12.8-10.979556 0-23.04 0-41.045333 0-59.079111 12.8-71.111111 32-71.111111h960C1011.2-71.111111 1024-59.079111 1024-41.045333c0 18.033778-12.8 30.065778-32 30.065777z m-416 0H160V584.305778c0 42.097778 25.6 54.129778 32 54.129778l384 102.200888v-751.616z m288 0H640V656.469333l185.6-60.131555h6.4c6.4 0 32-6.030222 32-66.161778v-541.155556z m-524.8 607.288889h-64v-60.103111h64v60.131556z m147.2 0h-64v-60.103111h64v60.131556z m-147.2-96.199111h-64v-60.103111h64v60.103111z m147.2 0h-64v-60.103111h64v60.103111z m-147.2-102.200889h-64v-60.131555h64v60.131555z m147.2 0h-64v-60.131555h64v60.131555z m-147.2-102.229333h-64v-60.131556h64v60.131556z m147.2 0h-64v-60.131556h64v60.131556z m-147.2-96.199111h-64v-60.131556h64v60.131556z m147.2 0h-64v-60.131556h64v60.131556z m-147.2-102.229333h-64v-60.131556h64V97.28z m147.2 0h-64v-60.131556h64V97.28z m236.8 342.755555h64v60.103111h-64v-60.103111z m0-102.229333h64v60.131555h-64v-60.131555z m0-102.229334h64v60.131556h-64v-60.131556z m0-96.199111h64v60.131556h-64v-60.131556z m0-102.229333h64V97.28h-64v-60.131556z"  horiz-adv-x="1024" />

    
    <glyph glyph-name="quanpingx" unicode="&#58951;" d="M908.999111-63.004444h-128.995555a30.008889 30.008889 0 0 0 0 60.017777h98.986666a19.996444 19.996444 0 0 1 19.996445 19.996445v98.986666a30.008889 30.008889 0 1 0 60.017777 0v-128.995555c0-27.591111-22.385778-50.005333-50.005333-50.005333z m19.996445 684.999111a30.008889 30.008889 0 0 0-30.008889 30.008889v98.986666a19.996444 19.996444 0 0 1-19.996445 19.996445h-98.986666a30.008889 30.008889 0 0 0 0 60.017777h128.995555c27.591111 0 50.005333-22.385778 50.005333-50.005333v-128.995555c0-16.583111-13.425778-30.008889-30.008888-30.008889z m-157.013334-27.989334v-420.010666c0-27.591111-22.357333-50.005333-49.976889-50.005334H301.994667c-27.591111 0-50.005333 22.385778-50.005334 50.005334V594.005333c0 27.591111 22.385778 50.005333 50.005334 50.005334h420.010666c27.591111 0 50.005333-22.385778 50.005334-50.005334z m-59.989333-30.008889a19.996444 19.996444 0 0 1-19.996445 19.996445H332.003556a19.996444 19.996444 0 0 1-19.996445-19.996445v-359.992888c0-11.036444 8.96-19.996444 19.996445-19.996445h359.992888a19.996444 19.996444 0 0 1 19.996445 19.996445V563.996444zM243.996444 770.986667h-98.986666a19.996444 19.996444 0 0 1-19.996445-19.996445v-98.986666a30.008889 30.008889 0 0 0-60.017777 0V780.999111c0 27.591111 22.385778 50.005333 50.005333 50.005333h128.995555a30.008889 30.008889 0 0 0 0-60.017777zM95.004444 146.005333a30.008889 30.008889 0 0 0 30.008889-30.008889v-98.986666c0-11.064889 8.931556-19.996444 19.996445-19.996445h98.986666a30.008889 30.008889 0 1 0 0-60.017777H115.000889c-27.591111 0-50.005333 22.385778-50.005333 50.005333v128.995555c0 16.583111 13.425778 30.008889 30.008888 30.008889z"  horiz-adv-x="1024" />

    
    <glyph glyph-name="renyuanx" unicode="&#58952;" d="M292.977778 19.2c0 167.424 138.211556 310.784 305.607111 308.878222 121.258667-1.934222 233.614222-85.646222 281.713778-197.262222 15.416889-38.485333 23.096889-75.036444 23.096889-109.681778 0-17.322667 13.482667-32.711111 30.805333-32.711111h3.84c17.322667 0 29.070222 13.454222 29.070222 30.776889 0 157.809778-98.133333 290.588444-236.686222 344.462222a225.080889 225.080889 0 0 1 96.199111 184.746667c1.934222 123.164444-98.133333 227.072-221.297778 230.912-132.778667 5.774222-238.620444-98.133333-238.620444-228.977778 0-76.999111 38.485333-146.261333 98.133333-186.680889-136.618667-53.873778-234.752-186.652444-234.752-342.528 0-17.322667 9.016889-32.711111 26.339556-32.711111h7.68c15.416889 0 28.899556 13.454222 28.899555 30.776889z m135.964444 502.954667c-19.256889 111.616 83.427556 211.626667 193.137778 192.398222 72.021333-10.524444 129.905778-72.078222 141.454222-139.434667 19.228444-111.587556-84.394667-209.351111-194.076444-190.094222-67.356444 11.548444-128.967111 69.774222-140.515556 137.102222z m-94.947555-116.138667c-61.582222 13.454222-105.813333 67.328-105.813334 132.778667 0 65.422222 46.165333 119.296 107.747556 132.778666 11.548444 1.905778 21.162667 13.454222 21.162667 26.936889 0 17.322667-17.322667 30.776889-34.645334 26.936889-86.584889-19.256889-152.007111-96.227556-152.007111-188.586667 0-65.422222 32.711111-123.164444 82.744889-157.809777C137.671111 334.791111 56.888889 221.297778 56.888889 90.396444c0-9.614222 0-17.294222 1.934222-26.936888v-1.905778a29.582222 29.582222 0 0 1 28.842667-28.871111 29.582222 29.582222 0 0 1 28.871111 28.871111v1.905778c0 7.68-1.905778 17.351111-1.905778 26.936888 0 127.032889 94.293333 232.846222 217.429333 250.168889a33.28 33.28 0 0 1 28.871112 32.711111c-3.84 15.416889-13.454222 28.871111-26.936889 32.711112z"  horiz-adv-x="1024" />

    
    <glyph glyph-name="shebeix" unicode="&#58953;" d="M234.666667 572.444444c-18.659556 0-33.792 14.336-33.792 32v128c0 17.664 15.132444 32 33.792 32h641.792c18.631111 0 33.763556-14.336 33.763555-32v-128c0-17.664-15.132444-32-33.792-32H234.666667z m26.112 54.016h590.222222V707.384889H260.778667v-80.924445z m-99.754667 0h99.754667c18.659556 0 33.763556-4.352 33.763555-22.016s-15.104-32-33.763555-32h-127.431111c-18.659556 0-33.792 14.336-33.792 32V764.444444c0 17.664 13.283556 31.687111 31.943111 31.687112 18.631111 0 29.525333-14.023111 29.525333-31.687112v-137.984z m0-284.444444h99.754667c18.659556 0 33.763556-4.352 33.763555-22.016s-15.104-32-33.763555-32h-127.431111c-18.659556 0-33.792 14.336-33.792 32v160c0 17.664 13.283556 31.687111 31.943111 31.687111 18.631111 0 29.525333-14.023111 29.525333-31.687111v-137.984z m99.754667 0h590.222222v80.924444H260.778667v-80.924444z m-26.112-54.016c-18.659556 0-33.792 14.336-33.792 32v128c0 17.664 15.132444 32 33.792 32h641.792c18.631111 0 33.763556-14.336 33.763555-32v-128c0-17.664-15.132444-32-33.792-32H234.666667z m0-284.444444c-18.659556 0-33.792 14.336-33.792 32v128c0 17.664 15.132444 32 33.792 32h641.792c18.631111 0 33.763556-14.336 33.763555-32v-128c0-17.664-15.132444-32-33.792-32H234.666667z m26.112 54.016h590.222222v80.924444H260.778667v-80.924444z m-99.754667 0h99.754667c18.659556 0 33.763556-4.352 33.763555-22.016s-15.104-32-33.763555-32h-127.431111c-18.659556 0-33.792 14.336-33.792 32v160c0 17.664 13.283556 31.687111 31.943111 31.687111 18.631111 0 29.525333-14.023111 29.525333-31.687111v-137.984z"  horiz-adv-x="1024" />

    
    </font>
</defs>
</svg>
